<?xml version="1.0" encoding="utf-8"?>
<!-- Generator: Adobe Illustrator 16.0.0, SVG Export Plug-In . SVG Version: 6.00 Build 0)  -->
<!DOCTYPE svg PUBLIC "-//W3C//DTD SVG 1.1//EN" "http://www.w3.org/Graphics/SVG/1.1/DTD/svg11.dtd">
<svg version="1.1" id="Layer_1" xmlns="http://www.w3.org/2000/svg" xmlns:xlink="http://www.w3.org/1999/xlink" x="0px" y="0px"
	 width="960px" height="560px" viewBox="0 0 960 560" enable-background="new 0 0 960 560" xml:space="preserve">
<path fill-rule="evenodd" clip-rule="evenodd" fill="#E8EDEF" d="M560.981,278.979c-0.736,5.174-1.678,10.319-1.196,15.607
	c0.093,1.011-0.501,2.591-1.294,3.093c-4.466,2.824-3.104,6.52-2.02,10.377c1.139,4.045,0.424,8.225,0.417,12.345
	c-0.002,1-0.479,2.015-1.698,2.074c-1.115,0.054-1.095-1.025-1.382-1.743c-0.918-2.301-1.857-4.594-2.716-6.916
	c-1.059-2.865-2.727-4.896-6.09-4.816c-0.658-0.003-1.316-0.006-1.976-0.009c-0.158-3.463-0.241-6.9-0.717-10.379
	c-0.509-3.719-1.946-8.195,0.177-11.291c1.678-2.446,0.509-2.993-0.522-4.312c-0.757-3.626-1.244-7.276-0.993-10.993
	c-0.163-1.705,0.657-3.596-0.952-5.027c-0.014-2.331-0.026-4.663-0.04-6.994c2.932-0.405,2.984-1.885,2.364-4.519
	c-0.919-3.9-3.784-7.219-3.342-11.48c2.255,1.131,2.569,4.176,5.033,5.1c0.187,3.079,1.766,6.081,0.684,9.221
	c-1.401,4.068,0.563,5.485,4.256,5.662c0.074,1.263,0.709,1.976,2.004,2.039c0.007,0.992,0.014,1.985,0.021,2.977
	c-0.327,0.328-0.655,0.656-0.982,0.984c-0.957,1.636-1.867,3.3-2.88,4.9c-1.793,2.83,0.859,1.744,1.84,2.135
	c0.002,0.657,0.004,1.315,0.006,1.972c-2.208,2.129-1.182,7.652,1.639,10.095c2.954,2.559,4.946,2.028,6.039-1.59
	c0.849-2.807,2.341-5.449,2.34-8.492C559.66,278.993,560.321,278.986,560.981,278.979z M545.243,289.618
	c0.115-0.271,0.38-0.6,0.303-0.794c-0.077-0.193-0.496-0.252-0.765-0.369c-0.115,0.27-0.38,0.599-0.304,0.792
	C544.556,289.441,544.973,289.501,545.243,289.618z"/>
<path fill-rule="evenodd" clip-rule="evenodd" fill="#E8EDEF" d="M532.031,324.99c-3.038-0.633-1.903-3.085-1.972-4.851
	c-0.171-4.406,0.393-8.916-4.669-11.439c-1.849-0.922-1.783-3.323-1.294-4.992c1.464-4.998,0.907-10.174,1.612-15.245
	c1.005-7.227-0.938-14.419-2.679-21.484c0.847-0.141,1.754-0.443,1.803-1.373c0.281-5.363,2.144-10.664,0.805-16.079
	c-0.372-1.507-0.945-2.982,0.593-3.988c2.17-1.419,1.289-2.611-0.043-3.873c-1.054-0.998-1.24-2.263-1.193-3.614
	c2.633,0.666,5.266,1.332,7.899,1.997c0.412,0.637,0.824,1.273,1.236,1.91c-0.38,0.344-0.759,0.688-1.138,1.033
	c-1.066,0.12-2.449-0.252-2.75,1.278c-0.252,1.281,0.764,1.58,1.776,1.733c-0.018,0.994-0.035,1.987-0.054,2.98
	c-2.086,0.272-2.612,1.919-2.888,3.561c-2.06,12.288-2.156,24.486,1.924,36.456c-0.004,0.669-0.007,1.338-0.011,2.006
	c-0.51,0.258-1.386,0.438-1.461,0.788c-0.226,1.062,0.757,1.059,1.476,1.21c0.011,1.321,0.022,2.643,0.033,3.964
	c-2.661,6.139,0.634,12.109,0.504,18.174C531.472,318.44,534.41,321.585,532.031,324.99z"/>
<path fill-rule="evenodd" clip-rule="evenodd" fill="#E8EDEF" d="M383.866,255.016c5.755-0.572,7.695,4.014,9.794,7.786
	c1.829,3.287,3.095,6.498,6.846,8.462c3.734,1.957,3.696,6.841,4.072,10.185c0.595,5.295,2.634,3.817,5.411,2.542
	c0.075,5.203-1.685,10.031-2.974,14.966c-0.438,1.674-1.379,2.059-2.867,1.979c-1.781-0.096-2.235-1.277-2.109-2.722
	c0.326-3.733-1.562-7.308-0.188-11.216c1.413-4.021-2.272-6.655-4.01-9.671c-1.784-3.095-4.356-5.737-6.59-8.572
	c-1.498-1.9-3.262-2.037-5.226-0.757c-0.351-0.002-0.702-0.004-1.052-0.006c-1.627-2.484-0.435-5.379-1.162-7.994
	c-0.08-0.633-0.159-1.266-0.239-1.898C383.67,257.072,383.768,256.044,383.866,255.016z"/>
<path fill-rule="evenodd" clip-rule="evenodd" fill="#D8DDDF" d="M606.871,301.922c0.02,3.681,0.039,7.361,0.057,11.042
	c-1.76-1.307-1.658-4.067-3.905-4.99c-3.681-7.988-7.361-15.976-11.042-23.964c1.155-8.673-3.523-14.298-9.936-19.017
	c-2.957-4.616-7.578-7.231-12.056-10.019c0.03-0.817,0.238-1.546,1.001-1.996c11.458,2.292,18.14,10.401,22.357,20.208
	c3.682,8.564,6.538,17.523,10.326,26.087C604.301,300.692,605.053,301.948,606.871,301.922z"/>
<path fill-rule="evenodd" clip-rule="evenodd" fill="#D8DDDF" d="M543.027,308.991c-2.389,1.606-3.439,5.092-7.03,5.01
	c-2.624-5.395-3.148-11.4-4.959-17.032c-0.011-1.322-0.022-2.644-0.033-3.965c-0.005-0.666-0.01-1.332-0.015-1.998
	c0.004-0.668,0.007-1.337,0.011-2.006c0.669,0,1.339,0,2.008-0.001c2.224,3.813,2.034,8.406,4.159,13.563
	c1.291-4.112,0.979-7.233,0.745-10.195c-0.315-3.985,0.642-7.126,4.052-9.356c1.031,1.318,2.2,1.865,0.522,4.312
	c-2.123,3.096-0.686,7.572-0.177,11.291C542.786,302.091,542.869,305.528,543.027,308.991z"/>
<path fill-rule="evenodd" clip-rule="evenodd" fill="#CDD3D6" d="M570.99,252.978c-0.763,0.45-0.971,1.179-1.001,1.996
	c-0.654-0.01-1.31-0.02-1.964-0.029c-1.714-2.431-4.346-3.23-7.021-3.952c-2.35-1.937-4.901-3.067-8.003-2.002
	c-2.988,0.035-5.977,0.07-8.966,0.105c-2.464-0.924-2.778-3.969-5.033-5.1c-0.001-0.324-0.004-0.647-0.009-0.971
	c10.998-0.887,20.602,3.541,30.245,7.871C570.261,251.356,570.903,251.862,570.99,252.978z"/>
<path fill-rule="evenodd" clip-rule="evenodd" fill="#DFE4E6" d="M573.018,282.998c1.369-0.589,2.268-2.116,3.988-2.003
	c0.186,2.212-0.551,4.118-1.605,6.056c-3.087,5.676-7.083,10.849-9.399,16.948c-1.381,0.579-2.278,2.127-4.011,2
	c-0.488-4.598,2.047-8.093,4.201-11.764C568.41,290.454,571.63,287.28,573.018,282.998z"/>
<path fill-rule="evenodd" clip-rule="evenodd" fill="#D8DDDF" d="M548.982,278.987c-0.002-0.657-0.004-1.315-0.006-1.972
	c0.729-1.146,1.896-0.995,3.005-1.019c2.092,2.256,3.082,2.14,4.176-1.096c1.163-3.439-0.195-8.322,4.845-9.902l0.068,0.028
	c0.317,0.312,0.636,0.623,0.953,0.935c0.003,0.357,0.005,0.714,0.007,1.071c-2.148,0.399-2.631,1.339-0.966,2.976
	c-0.032,1.326-0.064,2.652-0.097,3.979c-0.88,0.18-2.354-0.342-2.363,1.006c-0.01,1.362,1.472,0.837,2.348,1.025
	c0.01,0.987,0.021,1.975,0.03,2.962c-0.661,0.006-1.322,0.013-1.982,0.02c-0.565,0.275-1.345,0.401-1.658,0.852
	c-1.436,2.063-2.292,5.221-5.378,4.798C549.09,284.256,550.481,280.657,548.982,278.987z"/>
<path fill-rule="evenodd" clip-rule="evenodd" fill="#E8EDEF" d="M476.01,305.998c0.388-0.031,0.775-0.063,1.161-0.093
	c0.522-0.702,1.046-1.406,1.571-2.108c2.211,0.885,4.026,4.255,7.077,0.552c-0.878,3.787-0.71,7.076-3.52,9.876
	c-3.648,3.635-2.865,9.148-4.29,13.764c-0.59-5.32,1.172-10.793-1.035-16.01C477.861,309.79,477.848,307.747,476.01,305.998z"/>
<path fill-rule="evenodd" clip-rule="evenodd" fill="#C3C1AA" d="M478.739,303.795c-0.522,0.704-1.046,1.408-1.568,2.11
	c-0.079-2.296-0.16-4.591-0.241-6.886c0.129-6.388,0.258-12.776,0.387-19.165c0.797,0.041,1.596,0.083,2.394,0.124
	c0.382,0.624,0.764,1.248,1.147,1.872c0.001,0.001,0.098,0.089,0.098,0.089c-0.299,0.342-0.598,0.684-0.896,1.025
	c-0.956,4.63-1.349,9.302-1.039,14.025C478.926,299.258,478.833,301.526,478.739,303.795z"/>
<path fill-rule="evenodd" clip-rule="evenodd" fill="#DFE4E6" d="M561.004,250.993c2.676,0.721,5.308,1.521,7.021,3.952
	c-1.026,0.212-2.905-0.2-2.585,1.382c0.766,3.784-2.353,5.817-3.391,8.75c-0.326-0.04-0.652-0.056-0.979-0.051l-0.068-0.028
	c1.192-3,1.199-6.002,0.004-9.004c1.372-1.666,0.165-3.328-0.009-4.991L561.004,250.993z"/>
<path fill-rule="evenodd" clip-rule="evenodd" fill="#7E7362" d="M345.135,307.905c0.014-3.624,0.027-7.248,0.04-10.872
	c1.103-0.002,2.206-0.003,3.308-0.005c0.492,1.355,0.983,2.712,1.475,4.066c0.024,0.625,0.048,1.25,0.072,1.876
	c-1.581,1.373-0.742,3.277-1.079,4.924C347.679,307.898,346.407,307.902,345.135,307.905z"/>
<path fill-rule="evenodd" clip-rule="evenodd" fill="#C3C1AA" d="M345.135,307.905c1.272-0.003,2.544-0.007,3.816-0.011
	c1.192,1.011,3.096,0.69,4.039,2.165c-2.065,2.405,1.256,3.906,1.009,6.007c-3.245-0.261-5.473-3.333-8.859-3.203
	C345.14,311.21,345.138,309.558,345.135,307.905z"/>
<path fill-rule="evenodd" clip-rule="evenodd" fill="#D0CDB7" d="M347.005,289.447c0,0-0.089,0.006-0.088,0.006
	c0.073-0.474,0.146-0.948,0.217-1.422c2.229-0.083,6.132-6.167,6.168,1.761c0.005,1.125,1.456,1.124,2.409,1.343
	c1.509,0.346,2.219,1.332,2.231,2.856c-3.416-0.499-6.62-3.367-10.299-0.92c-0.357-0.394-0.714-0.787-1.071-1.181
	C346.716,291.076,346.861,290.262,347.005,289.447z"/>
<path fill-rule="evenodd" clip-rule="evenodd" fill="#D0CDB7" d="M476.01,305.998c1.838,1.749,1.852,3.792,0.965,5.98l0.026-0.011
	c-0.334,0.005-0.668,0.01-1.002,0.016c-2.451,0.268-4.618-0.429-4.723-3.122C471.15,305.649,473.895,306.101,476.01,305.998z"/>
<path fill-rule="evenodd" clip-rule="evenodd" fill="#918B78" d="M346.572,291.891c0.357,0.394,0.714,0.787,1.074,1.181
	c0.319,0.67,0.637,1.34,0.954,2.009c-0.039,0.649-0.078,1.299-0.116,1.948c-1.103,0.002-2.206,0.003-3.309,0.005
	c0.005-1.689,0.01-3.379,0.015-5.067C345.65,291.94,346.111,291.915,346.572,291.891z"/>
<path fill-rule="evenodd" clip-rule="evenodd" fill="#E8EDEF" d="M561.064,270.008c-1.665-1.637-1.183-2.577,0.966-2.976
	C562.567,268.303,563.551,269.719,561.064,270.008z"/>
<path fill-rule="evenodd" clip-rule="evenodd" fill="#DFE4E6" d="M560.952,276.018c-0.876-0.188-2.357,0.337-2.348-1.025
	c0.009-1.348,1.483-0.826,2.363-1.006C560.962,274.664,560.957,275.341,560.952,276.018z"/>
<path fill-rule="evenodd" clip-rule="evenodd" fill="#D8DDDF" d="M386.039,271.998c-0.279,0.013-0.558,0.035-0.838,0.065
	c0.139-1.369-2.016-2.61-0.229-4.07c0.35,0.002,0.701,0.004,1.052,0.006C386.029,269.332,386.034,270.665,386.039,271.998z"/>
<path fill-rule="evenodd" clip-rule="evenodd" fill="#7E7362" d="M346.572,291.891c-0.461,0.024-0.922,0.05-1.382,0.075
	c0.275-1.078-1.041-3.302,1.815-2.519C346.861,290.262,346.716,291.076,346.572,291.891z"/>
<path fill-rule="evenodd" clip-rule="evenodd" fill="#C3C1AA" d="M346.06,320.843c-0.291,0.097-0.587,0.171-0.889,0.222
	c-0.009-0.952-0.018-1.904-0.026-2.854C346.134,318.852,346.004,319.88,346.06,320.843z"/>
<path fill-rule="evenodd" clip-rule="evenodd" fill="#E8EDEF" d="M477.001,311.968c-0.039,0.347-0.078,0.693-0.119,1.04
	c-0.295-0.342-0.589-0.683-0.883-1.024C476.333,311.978,476.667,311.973,477.001,311.968z"/>
<path fill-rule="evenodd" clip-rule="evenodd" fill="#E8EDEF" d="M561.07,265.026c0.327-0.005,0.653,0.012,0.979,0.051
	c-0.017,0.295-0.025,0.59-0.026,0.884C561.706,265.649,561.388,265.337,561.07,265.026z"/>
<path fill-rule="evenodd" clip-rule="evenodd" fill="#D0CDB7" d="M522.011,130.003c4.153,8.036,4.292,16.698,3.978,25.433
	c-0.037,1.019-0.196,1.959-1.063,2.627c-2.321-0.622-4.643-1.243-6.964-1.864c-0.454-0.742-1.134-0.845-1.909-0.675
	c-0.842-0.442-1.537-0.333-2.035,0.534c-1.003-0.021-2.006-0.043-3.009-0.064c-0.334-0.345-0.667-0.69-1.001-1.036
	c-0.089-0.317-0.166-0.908-0.27-0.913c-3.139-0.144-6.593-1.988-9.111,1.486c-1.095,1.51-2.291,1.664-3.833,0.695
	c-1.256-0.789-2.542-1.595-3.922-2.106c-3.858-1.429-3.642-4.019-1.686-6.629c1.404-1.875,2.022-4.156,3.142-5.869
	c2.469-3.779,1.398-8.984,5.288-11.948c2.449-1.865,5.5-3.063,5.763-6.94c0.109-1.607,1.843-1.063,3.21-1.12
	c4.832-0.199,7.317,4.249,11.421,5.351C520.676,127.978,521.343,128.991,522.011,130.003z"/>
<path fill-rule="evenodd" clip-rule="evenodd" fill="#C3C1AA" d="M520.009,126.966c-4.104-1.102-6.589-5.549-11.421-5.351
	c-1.367,0.056-3.101-0.488-3.21,1.12c-0.263,3.877-3.313,5.075-5.763,6.94c-3.89,2.963-2.819,8.169-5.288,11.948
	c-1.119,1.713-1.737,3.994-3.142,5.869c-1.956,2.61-2.173,5.2,1.686,6.629c1.38,0.511,2.666,1.317,3.922,2.106
	c1.542,0.968,2.738,0.814,3.833-0.695c2.519-3.474,5.973-1.629,9.111-1.486c0.104,0.005,0.181,0.595,0.27,0.913
	c-2.935-0.059-5.509,0.428-6.048,3.996c-0.761,0.479-0.934,1.218-0.902,2.046c-0.391,0.004-0.78,0.008-1.17,0.013
	c-2.28-1.469-4.516-2.673-5.932,0.997c-1.286-2.68-2.837-5.095-5.965-5.92c-0.356-0.361-0.713-0.722-1.068-1.082
	c-0.021-1.917-1.259-3.355-1.968-5.002c-0.062-2.441,0.156-4.522,3.203-5.299c1.939-0.495,2.397-2.546,1.458-4.083
	c-4.85-7.935,1.437-14.059,3.356-20.828c0.546-1.925,3.104-2.216,5.167-2.144c1.645,0.058,3.286,0.172,4.93,0.261
	c3.292,1.208,6.331,3.304,10.089,2.88c0.954,0.146,1.909,0.292,2.864,0.439C518.684,123.144,519.346,125.055,520.009,126.966z"/>
<path fill-rule="evenodd" clip-rule="evenodd" fill="#7E7362" d="M518.021,121.233c-0.955-0.146-1.91-0.292-2.865-0.438
	c-0.373-2.353-2.063-2.846-4.075-2.881c0.137-4.308-3.429-4.044-6.072-4.917c-0.019-0.329-0.061-0.654-0.125-0.977
	c0.048-0.324,0.068-0.648,0.063-0.975c2.709-0.047,4.271-1.53,5.032-4.018c0.666,0.007,1.333,0.014,2,0.022
	c1.639,4.41,7.491,6.337,7.053,11.971C518.695,119.758,518.358,120.496,518.021,121.233z"/>
<path fill-rule="evenodd" clip-rule="evenodd" fill="#675E4D" d="M490.944,100.196c3.445-0.936,6.587,1.277,9.971,0.962
	c3.212,1.664,6.342,3.452,9.064,5.87c-0.761,2.488-2.323,3.97-5.032,4.017c-2.18-0.093-3.508-2.698-5.95-2.017
	c-2.475-1.855-5.304-0.742-7.975-0.954c-0.339-0.407-0.678-0.813-1.016-1.22C489.866,104.571,491.49,102.536,490.944,100.196z"/>
<path fill-rule="evenodd" clip-rule="evenodd" fill="#F2F7F9" d="M591.98,284.01c3.681,7.988,7.361,15.976,11.042,23.964
	c-0.433,2.426-0.601,4.936-1.347,7.262c-2.195,6.849-15.691,15.517-22.906,14.493c-2.498-0.354-4.032-2.87-4.594-5.264
	c-0.609-2.597,1.781-2.686,3.511-3.707c6.009-3.551,11.763-7.555,17.448-11.617c1.182-0.845,2.156-2.536,1.316-4.676
	c-2.328,0.45-2.793,3.855-5.453,3.533l0.004,0.004c-1.264-4.201-3.841-6.718-8.472-6.301c-2.829,0.255-3.144-1.213-1.665-2.836
	c3.543-3.888,5.693-8.517,7.83-13.186C589.374,284.196,590.567,283.938,591.98,284.01z"/>
<path fill-rule="evenodd" clip-rule="evenodd" fill="#F2F7F9" d="M566.001,303.999c2.316-6.1,6.313-11.272,9.399-16.948
	c1.055-1.938,1.791-3.844,1.605-6.056c1.231-3.064,2.113-6.311,4.939-8.474c1.078-0.825,2.033-1.858,3.512-1.146
	c1.409,0.68,1.873,2.121,1.463,3.396c-1.896,5.892-1.941,12.524-7.201,17.085c-3.614,3.134-6.034,7.426-9.789,10.514
	C568.669,303.406,567.576,304.08,566.001,303.999z"/>
<path fill-rule="evenodd" clip-rule="evenodd" fill="#F2F7F9" d="M590.998,307.998c-0.242,2.107-1.918,2.891-3.533,2.844
	c-3.422-0.099-6.498,0.73-9.49,2.259c-1.198,0.612-2.854,1.185-3.423-0.487c-0.665-1.955-1.909-4.002-1.04-6.178
	c0.581-1.457,2.144-1.646,3.444-1.382c3.879,0.787,7.716,1.782,11.579,2.657c0.803,0.182,1.643,0.198,2.467,0.291L590.998,307.998z"
	/>
<path fill-rule="evenodd" clip-rule="evenodd" fill="#CDD3D6" d="M454.956,328.027c0.015-1.489-0.033-2.982,0.061-4.468
	c0.107-1.712,0.002-3.221-2.109-3.6c-0.002-1.307-0.003-2.614-0.003-3.921c-0.668-2.682,1.983-6.132-1.871-8.074
	c-0.014-1.653-0.027-3.308-0.041-4.961c0.046-1.46-0.007-2.855-1.941-3.058c-0.017-1.315-0.034-2.632-0.051-3.947
	c-0.011-1.327-0.021-2.654-0.032-3.981c-0.218-2.387,1.016-5.49-2.971-6.017c-0.016-4-0.033-8.001-0.048-12.001
	c4.177-1.981-1.359-4.059,0.061-6.068c2.022-0.149,2.616,1.763,3.696,3.045c1.006-3.5-0.941-6.966,1.296-9.952
	c0.415,0.829,1.169,0.973,1.989,0.983c0.01,0.327,0.021,0.654,0.033,0.98c-2.598,0.291-0.684,2.015-0.966,3.042
	c0.256,4.167-1.162,8.746,2.943,11.967c1.319,2.194,0.901,4.632,0.98,7c-3.076,2.379-2.837,5.262-0.417,7.619
	c2.057,2.002,2.35,4.158,2.46,6.711c0.457,10.638-0.391,21.181-2.017,31.68c0,0-0.003,0.005-0.002,0.006
	c-0.354-0.339-0.708-0.678-1.063-1.016C454.949,329.34,454.952,328.684,454.956,328.027z"/>
<path fill-rule="evenodd" clip-rule="evenodd" fill="#CDD3D6" d="M431.018,270.986c-0.033-1.165,0.146-2.384-0.142-3.481
	c-0.667-2.545-2.927-4.026-5.088-3.933c-2.384,0.104-1.643,2.781-1.793,4.508c-0.345,3.954-0.663,7.911-1.01,11.866
	c-0.083,0.935,0.282,2.244-1.017,2.484c-1.349,0.249-2.273-0.912-2.522-1.964c-0.646-2.725-1.775-5.686-1.259-8.26
	c0.951-4.737-0.732-8.983-1.118-13.453c-0.269-3.115-2.337-2.656-4.232-2.884c0.065-1.294,0.128-2.59,0.192-3.886
	c2.217,0.302,1.816-3.842,4.042-2.723c2.829,1.423,6.35,2.947,7.748,5.448c3.489,6.24,9.454,6.858,15.196,8.368
	c-1.409,2.153-0.934,4.581-1.008,6.929c-0.004,0.33-0.008,0.66-0.011,0.99c-2.331,0.893-4.667-0.483-6.999,0.014
	C431.671,271.002,431.344,270.994,431.018,270.986z"/>
<path fill-rule="evenodd" clip-rule="evenodd" fill="#DFE4E6" d="M438.996,270.995c0.003-0.33,0.007-0.66,0.011-0.99
	c2.893,0.326,4.241,3.337,6.943,3.995c0.016,4,0.033,8.001,0.049,12.001c-0.004,1.004-0.008,2.008-0.013,3.013
	c-3.386-0.35-2.487-3.078-3.134-5.165c-0.771-2.487-0.032-7.677-5.734-4.18c-2.199,1.349-2.642-1.078-3.535-2.701
	c-0.894-1.624-1.808-3.054-1.595-4.959c1.892,0.938,2.738,4.003,5.68,2.806C439.549,274.049,438.799,272.354,438.996,270.995z"/>
<path fill-rule="evenodd" clip-rule="evenodd" fill="#D8DDDF" d="M438.996,270.995c-0.196,1.359,0.554,3.054-1.328,3.82
	c-2.942,1.198-3.788-1.867-5.68-2.806c0.003-0.333,0.006-0.667,0.009-1.001C434.329,270.511,436.665,271.888,438.996,270.995z"/>
<path fill-rule="evenodd" clip-rule="evenodd" fill="#DFE4E6" d="M451.034,307.965c3.854,1.942,1.203,5.393,1.871,8.074
	C447.996,314.34,449.424,311.173,451.034,307.965z"/>
<path fill-rule="evenodd" clip-rule="evenodd" fill="#D8DDDF" d="M445.986,289.014c0.004-1.005,0.008-2.009,0.013-3.013
	c3.987,0.526,2.752,3.63,2.971,6.017c-0.984-0.01-1.97-0.02-2.955-0.029C446.006,290.997,445.996,290.005,445.986,289.014z"/>
<path fill-rule="evenodd" clip-rule="evenodd" fill="#DFE4E6" d="M446.016,291.988c0.985,0.01,1.97,0.02,2.955,0.029
	c0.01,1.327,0.021,2.654,0.031,3.981C446.651,295.671,446.333,293.83,446.016,291.988z"/>
<path fill-rule="evenodd" clip-rule="evenodd" fill="#DFE4E6" d="M449.052,299.946c1.934,0.202,1.987,1.598,1.941,3.058
	C448.973,302.856,448.975,301.425,449.052,299.946z"/>
<path fill-rule="evenodd" clip-rule="evenodd" fill="#463222" d="M434.252,191.179c1.474-1.942-1.177-3.454-1.261-5.169
	c0.067-1.964-0.355-3.73-2.014-4.999c-0.035-0.334-0.07-0.669-0.104-1.003c2.313-1.111,4.378-1.53,4.084,2.124
	c-0.438,5.462,2.229,9.232,6.484,12.447c1.329-2.71-0.33-3.889-2.229-5.123c-1.249-0.811-1.788-2.454-0.798-3.454
	c1.511-1.526,2.094,0.372,2.801,1.341c0.408,0.559,0.835,0.99,1.792,0.46c-0.344-6.767,1.839-14.1-4.093-19.854
	c-0.033-1.346-0.065-2.693-0.098-4.039c0.076-7.153,0.897-14.215,1.926-21.304c1.72-11.852,9.156-19.911,17.169-27.729
	c2.092,0.305,3.413-0.425,4.208-2.526c0.688-1.822,2.219-1.003,2.421,0.128c0.556,3.106,2.978,6.655-1.502,9.05
	c-1.59,0.85-3.095,1.961-4.415,3.193c-2.632,2.457-1.9,5.715,0.152,7.433c4.98,4.167,6.017,9.117,4.628,14.993
	c-1.236,5.234-2.021,10.527-2.37,15.889c-0.397,1.285-0.795,2.57-1.191,3.857c-4.26-2.917-8.096,4.069-12.655,0.534
	c-0.763-0.592-1.04,1.966-1.184,3.208c-0.722,6.22,1.377,11.934,2.75,17.863c1.29,5.569,5.635,9.618,6.465,15.234
	c0.04,0.268,0.337,0.586,0.597,0.718c0.784,0.399,9.953-3.09,10.423-3.992c3.344-6.402,10.338-6.715,15.831-9.528
	c4.103,0.235,8.404-0.076,11.114,4.015c-0.896,0.371-1.164,1.121-1.21,2.004c-2.608,1.232-4.794,3.237-8.014,3.301
	c-3.412,0.067-1.09,2.318-1.022,3.683c-2.255-0.288-3.009,1-3.115,2.968c-1.751-0.477-4.074-0.405-5.151-1.528
	c-4.023-4.195-6.015-0.943-7.154,2.091c-1.027,2.738,0.525,6.136-1.339,8.984c-0.134,0.204,0.566,1.359,1.035,1.483
	c2.902,0.769,4.563,3.961,7.827,3.946c1.104,0.112,2.301-0.024,3.01,1.135c-1.409,1.437-4.51,2.491-1.132,5.009
	c0.015,0.675,0.029,1.351,0.044,2.025c0.256,1.181,0.229,2.539,2.054,3.086c0-1.154,0-2.133,0-3.113
	c0.505-0.99,1.01-1.98,1.97-3.865c0,3.365,0,5.621,0,7.875c0.105,1.899,1.095,2.9,3.01,2.961l0.009,0.009
	c-2.831,3.785-6.603,4.098-13.025,0.878c-1.106-0.555-2.132-1.229-3.171-0.432c-1.483,1.138-0.21,2.377,0.184,3.556
	c-4.883-1.313-9.06-3.919-12.947-7.058c-0.054-0.835-0.304-1.556-1.133-1.938c-0.311-0.666-0.622-1.332-0.933-1.997
	c-0.795-3.609-4.218-5.205-6.112-7.972c-0.068-0.668-0.136-1.337-0.203-2.005c-0.201-0.333-0.402-0.667-0.603-1
	c-0.041-0.666-0.081-1.332-0.122-1.998c-2.637-7.631-3.234-19.979-11.556-25.169L434.252,191.179z M463.969,205.743
	c0.13-0.069,0.259-0.139,0.388-0.208c-0.111-0.092-0.218-0.248-0.338-0.259c-0.121-0.011-0.255,0.121-0.383,0.191
	C463.747,205.559,463.857,205.651,463.969,205.743z"/>
<path fill-rule="evenodd" clip-rule="evenodd" fill="#604F3B" d="M461.035,163.04c0.348-5.362,1.133-10.655,2.369-15.89
	c1.389-5.875,0.352-10.825-4.628-14.993c-2.053-1.718-2.784-4.976-0.152-7.433c1.319-1.232,2.825-2.343,4.415-3.193
	c4.479-2.395,2.058-5.944,1.502-9.05c-0.202-1.132-1.732-1.95-2.421-0.128c-0.795,2.101-2.116,2.831-4.208,2.526
	c6.424-8.696,16.019-11.471,25.842-13.779c1.099-0.258,2.339,0.058,3.224-0.93c1.322,0.008,2.646,0.016,3.969,0.025
	c0.545,2.342-1.079,4.377-0.938,6.662c-0.662,0.067-1.323,0.133-1.985,0.199c-0.36,0.299-0.72,0.598-1.08,0.896
	c-0.647,0.008-1.295,0.016-1.942,0.024c-0.412-0.8-1.15-0.906-1.938-0.907c-1.944-0.009-2.939,0.991-3.079,2.899
	c-0.339,0.338-0.677,0.676-1.015,1.014c-1.679-0.099-3.299,0.337-4.488,1.419c-1.748,1.59-2.795,3.406,0.489,4.6
	c-4.158,4.384-2.886,9.735-3.194,15.023c-0.344,5.88-0.31,12.288-5.953,16.719c-0.962,0.754-3.975,4.49,0.358,6.217
	c1.162,0.463,1.187,0.939,0.599,1.744C465.088,159.015,464.761,162.572,461.035,163.04z"/>
<path fill-rule="evenodd" clip-rule="evenodd" fill="#604F3B" d="M438.914,167.949c5.932,5.754,3.749,13.087,4.093,19.854
	c-0.958,0.53-1.385,0.099-1.792-0.46c-0.707-0.969-1.29-2.867-2.801-1.341c-0.99,1-0.451,2.643,0.798,3.454
	c1.9,1.233,3.558,2.413,2.229,5.123c-4.255-3.215-6.923-6.985-6.484-12.447c0.294-3.654-1.771-3.235-4.084-2.124
	c-1.934-2.498-2.783-5.11-0.848-8.017c3.961,0.644,5.602-1.03,4.966-4.976c0.325-0.03,0.65-0.059,0.976-0.084
	C436.95,167.271,437.932,167.61,438.914,167.949z"/>
<path fill-rule="evenodd" clip-rule="evenodd" fill="#675E4D" d="M434.992,167.016c0.636,3.946-1.005,5.62-4.966,4.976
	C431.172,169.825,431.141,166.483,434.992,167.016z"/>
<path fill-rule="evenodd" clip-rule="evenodd" fill="#D8DDDF" d="M410.029,257.309c-2,6.543,0.019,13.645-2.197,20.979
	c-2.594-2.126-2.667-4.737-2.93-6.278c-0.998-5.852-6.885-6.958-9.578-11.04c-1.207-1.829-1.406-3.198-0.34-4.927
	c1.464-0.143,3.175,0.091,2.415-2.427c-0.371-1.226-0.341-2.594-0.363-3.9c-0.024-1.411,0.102-2.79,2.195-2.072
	c1.224,0.42,2.776,0.461,1.38,2.458c-0.893,1.278,0.026,2.181,1.182,2.692c2.363,1.045,4.33,2.95,7.034,3.252
	C409.229,256.467,409.629,256.888,410.029,257.309z"/>
<path fill-rule="evenodd" clip-rule="evenodd" fill="#CDD3D6" d="M408.828,256.047c-2.704-0.302-4.671-2.207-7.034-3.252
	c-1.156-0.511-2.075-1.415-1.182-2.692c1.396-1.997-0.156-2.038-1.38-2.458c-2.093-0.718-2.219,0.661-2.195,2.072
	c0.022,1.306-0.007,2.674,0.363,3.9c0.761,2.519-0.95,2.285-2.415,2.427c-0.016-0.338-0.032-0.676-0.047-1.015
	c0.068-1.483-0.635-2.462-1.975-3.025c-0.002-0.665-0.005-1.329-0.007-1.993c2.462-2.93-1.045-3.81-2.098-5.228
	c-1.014-1.366-2.189,0.033-2.86,1.21c-0.33,0.004-0.659,0.011-0.988,0.021c-1.75,1.574-4.267,2.376-4.998,4.973
	c-1.373-0.647-2.333-1.715-3.069-3.012c5.645-4.305,11.593-7.876,19.021-7.874c1.309,2.733,1.132,5.72,6.365,5.662
	C410.296,245.697,409.01,251.776,408.828,256.047z"/>
<path fill-rule="evenodd" clip-rule="evenodd" fill="#B8B7A1" d="M408.828,256.047c0.182-4.271,1.469-10.35-4.498-10.284
	c-5.232,0.058-5.056-2.929-6.365-5.662c1.671-0.009,3.342-0.02,5.012-0.03c1.339,2.942,5.18,2.035,6.973,4.512
	c0.418,0.577,1.603-0.715,1.958-1.702c0.223-0.082,0.446-0.085,0.673-0.007c2.217,0.238,2.682,1.573,2.139,3.481
	c-0.536,1.884-1.124,3.753-1.689,5.629c-0.063,1.296-0.127,2.592-0.192,3.886c-0.937,0.477-1.873,0.955-2.808,1.437
	C409.629,256.888,409.229,256.467,408.828,256.047z"/>
<path fill-rule="evenodd" clip-rule="evenodd" fill="#B8B7A1" d="M378.944,247.975c0.736,1.296,1.696,2.365,3.069,3.012
	c0.253,0.07,0.511,0.112,0.774,0.126c0.227,1.338-0.163,2.847,1.08,3.903c-0.099,1.028-0.197,2.056-0.292,3.084
	c-2.322-0.859-2.216-3.58-3.823-4.995c-0.825-0.727-1.085-2.907-2.862-1.071c-0.526-0.013-1.051-0.025-1.577-0.038
	c-3.981-0.255-4.677,5.113-8.572,5.006c-0.571-0.639-1.142-1.278-1.713-1.917C368.704,250.832,374.03,249.807,378.944,247.975z"/>
<path fill-rule="evenodd" clip-rule="evenodd" fill="#D8DDDF" d="M387.999,245.993c0.671-1.178,1.846-2.577,2.86-1.21
	c1.052,1.418,4.56,2.298,2.098,5.228C389.816,250.506,389.887,247.042,387.999,245.993z"/>
<path fill-rule="evenodd" clip-rule="evenodd" fill="#D8DDDF" d="M382.787,251.113c-0.263-0.014-0.521-0.057-0.774-0.126
	c0.731-2.597,3.249-3.399,4.998-4.973C387.423,249.221,384.984,250.067,382.787,251.113z"/>
<path fill-rule="evenodd" clip-rule="evenodd" fill="#D8DDDF" d="M392.963,252.003c1.34,0.563,2.042,1.542,1.975,3.025
	C393.267,254.681,391.502,254.395,392.963,252.003z"/>
<path fill-rule="evenodd" clip-rule="evenodd" fill="#CDD3D6" d="M541.965,283.01c-3.41,2.23-4.367,5.371-4.052,9.356
	c0.234,2.962,0.546,6.083-0.745,10.195c-2.125-5.156-1.936-9.75-4.159-13.563c0.353-5.642-3.5-11.211-0.291-16.936
	c0.215-0.383-0.122-1.488-0.525-1.739c-3.101-1.934-2.3-4.976-2.064-7.653c0.402-4.581,1.203-9.126,1.837-13.687
	c0.019-0.994,0.036-1.987,0.054-2.98c0.326,0.005,0.652,0.01,0.979,0.015c3.626,2.334,3.795,5.475,1.99,8.977
	c-1.307,2.535-1.17,4.058,2.205,4.084c0.932,0.007,1.858,0.596,2.787,0.917c0.014,2.331,0.026,4.663,0.039,6.994
	c-1.713,2.061-4.395,4.305,0.953,5.027C540.721,275.734,541.208,279.384,541.965,283.01z"/>
<path fill-rule="evenodd" clip-rule="evenodd" fill="#D8DDDF" d="M539.979,259.996c-0.929-0.322-1.855-0.91-2.787-0.917
	c-3.375-0.026-3.512-1.549-2.205-4.084c1.805-3.501,1.636-6.642-1.99-8.977c-0.002-1.008-0.004-2.017-0.005-3.025
	c0.379-0.344,0.758-0.688,1.137-1.033c0.315,0.007,0.622,0.061,0.921,0.164c0.479,0.75,1.227,0.866,2.027,0.856
	c0.639,0.016,1.277,0.031,1.916,0.046c0.005,0.324,0.008,0.647,0.009,0.971c-0.442,4.261,2.423,7.58,3.342,11.48
	C542.964,258.111,542.911,259.59,539.979,259.996z"/>
<path fill-rule="evenodd" clip-rule="evenodd" fill="#F2F7F9" d="M544.035,249.097c2.989-0.035,5.978-0.07,8.966-0.105
	c0.005,0.338,0.01,0.677,0.014,1.015c-0.009,0.997-0.018,1.994-0.026,2.991c-0.982,0.658-0.988,1.329-0.025,2.011
	c-0.006,0.656-0.013,1.312-0.019,1.967c-1.279,0.056-1.905,0.753-1.963,2.005c-1.03,0.311-3.327-0.628-1.992,2.018
	c-0.005,0.994-0.01,1.987-0.015,2.98c-3.693-0.176-5.657-1.594-4.256-5.662C545.801,255.177,544.222,252.176,544.035,249.097z"/>
<path fill-rule="evenodd" clip-rule="evenodd" fill="#DFE4E6" d="M548.982,278.987c1.499,1.669,0.107,5.269,2.981,5.662
	c3.086,0.423,3.942-2.734,5.378-4.798c0.313-0.45,1.093-0.576,1.658-0.852c0.001,3.043-1.491,5.686-2.34,8.492
	c-1.093,3.618-3.085,4.148-6.039,1.59C547.801,286.64,546.774,281.116,548.982,278.987z"/>
<path fill-rule="evenodd" clip-rule="evenodd" fill="#DFE4E6" d="M551.981,275.996c-1.108,0.024-2.276-0.126-3.005,1.019
	c-0.98-0.391-3.633,0.694-1.84-2.135c1.013-1.6,1.923-3.264,2.879-4.899c0.328,0.007,0.655,0.012,0.983,0.017l0.003,0.002
	C550.649,272.109,551.652,273.998,551.981,275.996z"/>
<path fill-rule="evenodd" clip-rule="evenodd" fill="#DFE4E6" d="M548.975,263.979c0.005-0.994,0.01-1.987,0.015-2.98
	c0.958-0.383,1.631-1.046,1.992-2.018c0.058-1.252,0.684-1.949,1.964-2.005c0.812,0.432,1.025,1.173,1.048,2.015l-0.003,0.003
	c-1.284,0.056-1.953,0.72-1.986,2.011c0.002,0.666,0.005,1.332,0.008,1.997c-1.163,0.726-0.976,1.913-1.033,3.017
	C549.684,265.955,549.049,265.243,548.975,263.979z"/>
<path fill-rule="evenodd" clip-rule="evenodd" fill="#D8DDDF" d="M550.979,266.019c0.058-1.104-0.13-2.292,1.032-3.017
	c1.262,2.563,2.342,5.1-1.009,6.998l-0.003-0.002c0-0.334,0-0.668,0-1.002C550.992,268.003,550.985,267.011,550.979,266.019z"/>
<path fill-rule="evenodd" clip-rule="evenodd" fill="#D8DDDF" d="M540.972,272.017c-5.348-0.722-2.666-2.966-0.953-5.027
	C541.629,268.42,540.809,270.312,540.972,272.017z"/>
<path fill-rule="evenodd" clip-rule="evenodd" fill="#D8DDDF" d="M545.242,289.618c-0.27-0.117-0.687-0.177-0.765-0.371
	c-0.076-0.193,0.188-0.522,0.304-0.792c0.269,0.117,0.688,0.176,0.765,0.369C545.623,289.019,545.358,289.348,545.242,289.618z"/>
<path fill-rule="evenodd" clip-rule="evenodd" fill="#CDD3D6" d="M550.999,268.996c0,0.334,0,0.668,0,1.002
	c-0.328-0.005-0.655-0.01-0.983-0.017C550.344,269.652,550.672,269.324,550.999,268.996z"/>
<path fill-rule="evenodd" clip-rule="evenodd" fill="#DFE4E6" d="M476.468,268.938c-1.143,0-2.286,0-3.37,0
	c-0.698-1.743,1.451-1.744,1.462-2.857c0.017-1.733-1.487-2.454-2.573-3.391c-0.702-0.605-1.543-0.482-2.188,0.233
	c-1.113,1.232-0.688,2.394,0.172,3.558c0.696,0.942,1.524,2.104,0.245,2.998c-1.292,0.903-3.013,0.942-3.99-0.449
	c-1.366-1.943-3.171-2.146-5.216-2.021c1.327-2.75,1.561-6.134,4.937-7.666c1.379-0.625,2.106-2.065,2.137-3.693
	c0.63,0.173,1.261,0.345,1.892,0.516c1.926,1.311,3.853,2.621,5.778,3.931c0.383,0.643,0.766,1.285,1.148,1.927
	C477.016,264.346,477.36,266.681,476.468,268.938z"/>
<path fill-rule="evenodd" clip-rule="evenodd" fill="#DFE4E6" d="M456.009,331.006c1.626-10.499,2.474-21.042,2.017-31.68
	c-0.11-2.553-0.403-4.709-2.46-6.711c-2.421-2.357-2.66-5.24,0.417-7.619c2.082,4.936,4.121,9.855,4.043,15.389
	c-0.1,7.104-0.05,14.213-0.016,21.318C460.028,325.407,458.729,328.5,456.009,331.006z"/>
<path fill-rule="evenodd" clip-rule="evenodd" fill="#D8DDDF" d="M468.082,255.65c-0.03,1.629-0.758,3.069-2.137,3.695
	c-3.376,1.531-3.609,4.916-4.937,7.666c-0.001,0.33-0.004,0.66-0.009,0.989c-0.667,0-1.333,0-2,0h0
	c-1.454-3.687-4.624-1.326-6.941-1.97c0.282-1.027-1.632-2.751,0.965-3.042c0.786-0.024,1.515-0.165,1.936-0.941
	c3.456-2.432,8.377-2.984,9.986-7.785C466.267,254.104,467.196,254.828,468.082,255.65z"/>
<path fill-rule="evenodd" clip-rule="evenodd" fill="#918B78" d="M476.468,268.938c0.893-2.257,0.548-4.592,0.434-6.913
	c1.07,0,2.141,0,3.212,0c0.126,5.99,0.771,11.993-0.403,17.954c-0.798-0.042-1.597-0.083-2.394-0.124
	C477.034,276.216,476.751,272.578,476.468,268.938z"/>
<path fill-rule="evenodd" clip-rule="evenodd" fill="#DFE4E6" d="M452.059,266.03c2.317,0.644,5.487-1.717,6.941,1.97
	c-2.409-0.187-3.229,1.111-2.985,3.291c0.261,2.335-0.5,4.498-1.012,6.707C450.897,274.776,452.315,270.197,452.059,266.03z"/>
<path fill-rule="evenodd" clip-rule="evenodd" fill="#DFE4E6" d="M459,268c0.667,0,1.333,0,2,0
	c-0.229,0.917,0.466,2.553-1.223,2.384C458.774,270.285,459.079,268.88,459,268z"/>
<path fill-rule="evenodd" clip-rule="evenodd" fill="#D8DDDF" d="M511.005,327.005c-2.64-0.352-1.823-2.44-2.021-4.02
	c0.007-3.661,0.014-7.322,0.02-10.982c0.998-0.002,1.996-0.003,2.995-0.004c0.694,3.287-2.069,8.112,4.006,9.005
	c0.006,0.333,0.005,0.665-0.001,0.998c-1.667,1.667-3.334,3.335-5.001,5.002L511.005,327.005z"/>
<path fill-rule="evenodd" clip-rule="evenodd" fill="#DFE4E6" d="M511.999,311.999c-0.999,0.001-1.997,0.002-2.995,0.004
	c-0.003-0.669-0.005-1.338-0.008-2.007c-0.004-0.665-0.007-1.331-0.011-1.996c2.543-2.751-0.241-6.109,1.027-9.006
	c0.673,0.335,1.345,0.67,2.017,1.006C512.02,304,512.009,307.999,511.999,311.999z"/>
<path fill-rule="evenodd" clip-rule="evenodd" fill="#D8DDDF" d="M499.985,326.003c-1,1.008-2,2.017-3.001,3.024
	c0.197-3.153,1.093-6,3.56-8.247C501.723,322.749,499.93,324.27,499.985,326.003z"/>
<path fill-rule="evenodd" clip-rule="evenodd" fill="#DFE4E6" d="M382.075,318.954c-6.859-1.034-8.238-3.119-6.174-9.124
	c0.53-1.54,0.598-3.242,1.16-4.767c1.549-4.199-0.361-5.416-4.193-5.141c2.779-7.892-0.723-14.545-4.252-21.163
	c-0.219-0.412-1.156-0.44-1.758-0.647c-2.451-2.943-2.571-6.762-3.818-10.157c0.15-0.641,0.301-1.283,0.452-1.924
	c3.667-1.002,4.524,2.276,5.501,4.255c2.781,5.632,7.974,9.866,9.271,16.368c0.254,1.275,1.177,2.769,2.755,3.335
	c1.023,2.617,2.046,5.235,3.069,7.853c-0.03,0.698-0.061,1.396-0.091,2.094c-3.176-0.253-3.084,1.911-3.008,4.064
	c-1.466,3.335-4.297,6.67-0.002,10.006C381.349,315.656,381.712,317.305,382.075,318.954z"/>
<path fill-rule="evenodd" clip-rule="evenodd" fill="#CDD3D6" d="M381.018,289.99c-1.578-0.566-2.5-2.06-2.755-3.335
	c-1.298-6.502-6.491-10.736-9.271-16.368c-0.977-1.979-1.834-5.257-5.502-4.255c-0.166-2.008-0.33-4.017-0.495-6.025
	c0.687-1.637-1.501-4.461,2.033-4.922c0.571,0.639,1.143,1.278,1.716,1.917c-0.081,0.7-0.164,1.4-0.247,2.1
	c-0.254,0.133-0.509,0.266-0.763,0.399c0.379,0.153,0.758,0.306,1.137,0.458c0.179,0.205,0.248,0.442,0.206,0.71
	c-0.296,2.262,0.45,3.584,2.977,3.303l-0.043-0.017c0.344,0.342,0.688,0.685,1.031,1.028l-0.025-0.026
	c0.34,0.34,0.681,0.681,1.021,1.021l-0.018-0.017c0.375,0.341,0.75,0.682,1.126,1.023c0.294,0.287,0.589,0.574,0.884,0.86
	c0.415,0.359,0.829,0.718,1.243,1.078c0.271,0.27,0.542,0.539,0.814,0.808c-0.051,2.75,0.528,4.728,3.949,3.222
	c0.629,0.378,1.258,0.756,1.888,1.134C382.678,279.449,380.363,284.635,381.018,289.99z"/>
<path fill-rule="evenodd" clip-rule="evenodd" fill="#C3C1AA" d="M413.029,251.983c0.565-1.876,1.153-3.745,1.689-5.629
	c0.543-1.908,0.079-3.243-2.139-3.481c0.137-0.959,0.276-1.917,0.416-2.876c1.354-0.019,2.707-0.038,4.06-0.057
	c1.28,0.393,2.56,0.785,3.841,1.176c0.666,0.661,1.331,1.322,1.996,1.984c0.055,0.958,0.109,1.917,0.163,2.875
	c-2.705,6.619,3.037,2.974,4.905,4.037c0.047,1.297,0.095,2.594,0.143,3.891c0.32,5.57,4.596,2.101,6.943,3.039
	c1.761,3.346,7.582,2.089,7.949,7.014c-0.408,0.839-1.161,1.015-1.993,1.038c-0.039-0.789-0.148-1.541-0.987-1.918
	c-5.742-1.511-11.707-2.128-15.196-8.369c-1.398-2.5-4.919-4.024-7.748-5.448C414.845,248.141,415.247,252.285,413.029,251.983z"/>
<path fill-rule="evenodd" clip-rule="evenodd" fill="#D0CDB7" d="M366.857,278.113c0.603,0.207,1.539,0.236,1.758,0.647
	c3.53,6.618,7.031,13.271,4.252,21.163c-0.999,0.744-0.945,1.861-1.034,2.929c-0.315,0.099-0.648,0.159-0.946,0.298
	c-1.878,0.872-2.769,4.155-5.784,2.26c-2.981-1.875-0.842-3.878-0.458-6.023c0.516-2.881-0.754-4.151-3.653-2.4
	c-0.654-0.014-1.308-0.026-1.962-0.04c-0.01-0.676-0.02-1.353-0.029-2.028c1.701-2.6,1.149-6.612,4.951-7.894
	c2.059,2.894,2.575,6.276,3.077,9.667c0.156,1.053-0.414,2.705,1.253,2.744c1.346,0.031,1.77-1.468,1.836-2.604
	c0.342-5.867,0.682-11.763-3.238-16.82C366.873,279.378,366.865,278.746,366.857,278.113z"/>
<path fill-rule="evenodd" clip-rule="evenodd" fill="#B8B7A1" d="M363.952,287.023c-3.802,1.281-3.25,5.294-4.951,7.895
	c-0.353-0.309-0.706-0.618-1.059-0.927c-0.011-1.524-0.721-2.511-2.23-2.856c-0.953-0.219-2.404-0.218-2.409-1.343
	c-0.036-7.928-3.939-1.844-6.168-1.761c-0.288-2.397,2.059-3.226,2.962-4.929c1.507-2.844,3.125-1.751,4.366,0.252
	c0.567,0.915,0.669,2.118,1.161,3.804c1.827-2.144,2.604-4.855,5.381-5.063c1.907-0.144,2.257,1.664,3.195,2.725
	C364.116,285.555,364.034,286.289,363.952,287.023z"/>
<path fill-rule="evenodd" clip-rule="evenodd" fill="#A39E87" d="M363.952,287.023c0.082-0.734,0.165-1.469,0.248-2.204
	c4.995,0.681,0.76-3.78,2.681-4.809c3.919,5.057,3.579,10.953,3.237,16.82c-0.066,1.137-0.49,2.636-1.836,2.604
	c-1.667-0.039-1.098-1.691-1.253-2.744C366.527,293.3,366.01,289.917,363.952,287.023z"/>
<path fill-rule="evenodd" clip-rule="evenodd" fill="#A39E87" d="M420.896,241.118c-1.28-0.392-2.56-0.785-3.84-1.177
	c-0.753-3.223-2.602-1.411-4.166-0.906c-1.645-1.396,0.4-2.66,0.143-4.006c1.443-1.158,3.177-1.567,4.936-1.91
	c-0.026,0.312-0.028,0.625-0.005,0.937C418.226,236.707,421.167,238.245,420.896,241.118z"/>
<path fill-rule="evenodd" clip-rule="evenodd" fill="#A39E87" d="M411.907,242.88c-0.354,0.987-1.54,2.279-1.958,1.702
	c-1.792-2.477-5.633-1.569-6.973-4.512c2.299-1.34,4.564-3.033,6.215,0.905C409.58,241.9,410.524,242.931,411.907,242.88z"/>
<path fill-rule="evenodd" clip-rule="evenodd" fill="#918B78" d="M362.995,260.007c0.165,2.008,0.329,4.017,0.495,6.025
	c-0.149,0.641-0.3,1.283-0.451,1.924c-1.146,0.358-2.943,1.649-2.868-0.746C360.251,264.631,359.841,261.52,362.995,260.007z"/>
<path fill-rule="evenodd" clip-rule="evenodd" fill="#B8B7A1" d="M412.889,239.035c1.564-0.505,3.413-2.317,4.166,0.906
	c-1.353,0.019-2.706,0.038-4.059,0.056C412.942,239.679,412.907,239.358,412.889,239.035z"/>
<path fill-rule="evenodd" clip-rule="evenodd" fill="#CDD3D6" d="M511.999,311.999c0.01-4,0.021-7.999,0.03-11.999
	c0.717-3.246,1.182-6.437,2.602-9.641c1.253-2.828,1.292-7.089-2.594-9.365c-0.013-2.666-0.024-5.331-0.036-7.997
	c-0.491-2.995,4.064-6.594-1.079-9.033c-0.845-3.93-1.128-7.9-0.85-11.912c0.973-0.016,1.945-0.031,2.919-0.046
	c1.305,4.669,2.05,9.234,5.344,13.489c4.679,6.043,4.848,13.993,5.068,21.499c0.049,1.644-0.388,3.638-2.327,4.665
	c-0.731,0.387-1.356,1.615-0.783,2.116c5.38,4.707,0.73,9.81,0.711,14.708c-0.002,0.498-0.011,0.997-0.018,1.495
	c-0.011,0.33-0.022,0.662-0.034,0.993c-2.207-0.165-3.18,0.856-2.931,3.052c-0.672,2.326-1.345,4.653-2.017,6.979
	C509.93,320.111,512.693,315.286,511.999,311.999z"/>
<path fill-rule="evenodd" clip-rule="evenodd" fill="#DFE4E6" d="M512.991,252.007c-0.974,0.015-1.946,0.031-2.919,0.046
	c-0.069-2.632,0.076-5.294-0.271-7.891c-0.343-2.566-1.354-4.866-4.763-4.147c1.759-2.665,5.453-3.074,6.992-5.996
	c1.851-0.184,3.418,0.379,4.672,1.771c0.574,0.833,1.361,1.231,2.377,1.16l0.041-0.093c2.329,4.731-0.737,9.416-0.12,14.133
	C517.247,252.799,514.997,251.685,512.991,252.007z"/>
<path fill-rule="evenodd" clip-rule="evenodd" fill="#F2F7F9" d="M519.001,250.99c-0.617-4.717,2.449-9.402,0.119-14.131
	c1.992,0.228,4.076,0.007,5.874,1.193c-0.047,1.352,0.14,2.617,1.193,3.614c1.332,1.261,2.213,2.454,0.043,3.873
	c-1.538,1.005-0.965,2.481-0.593,3.988c1.339,5.415-0.523,10.716-0.805,16.079c-0.049,0.93-0.956,1.232-1.803,1.373
	c-0.017-0.654-0.033-1.307-0.05-1.96c0.046-1.452,0.032-2.865-1.929-3.044c-0.037-1.985-0.074-3.971-0.11-5.956
	c0.035-0.837-0.148-1.572-0.948-2.017C519.979,252.894,520.128,251.732,519.001,250.99z"/>
<path fill-rule="evenodd" clip-rule="evenodd" fill="#E8EDEF" d="M521.052,261.974c1.961,0.179,1.975,1.592,1.929,3.044
	C521.676,264.422,520.985,263.438,521.052,261.974z"/>
<path fill-rule="evenodd" clip-rule="evenodd" fill="#DFE4E6" d="M519.993,254.001c0.8,0.444,0.983,1.179,0.948,2.017
	C519.7,255.781,518.507,255.521,519.993,254.001z"/>
<path fill-rule="evenodd" clip-rule="evenodd" fill="#DFE4E6" d="M511.003,327.004c1.667-1.667,3.334-3.335,5.001-5.002
	C516.44,325.772,514.36,327.026,511.003,327.004z"/>
<path fill-rule="evenodd" clip-rule="evenodd" fill="#D8DDDF" d="M518.021,314.024c-0.249-2.195,0.724-3.217,2.931-3.052
	C520.937,312.913,519.888,313.861,518.021,314.024z"/>
<path fill-rule="evenodd" clip-rule="evenodd" fill="#DFE4E6" d="M531.965,248.983c-0.634,4.561-1.435,9.106-1.837,13.687
	c-0.235,2.678-1.036,5.719,2.064,7.653c0.403,0.251,0.74,1.356,0.525,1.739c-3.209,5.725,0.644,11.294,0.291,16.936
	C532.34,289,531.67,289,531.001,289c-4.08-11.97-3.983-24.167-1.924-36.456C529.353,250.903,529.879,249.256,531.965,248.983z"/>
<path fill-rule="evenodd" clip-rule="evenodd" fill="#DFE4E6" d="M532.992,242.992c0.001,1.009,0.003,2.017,0.005,3.025
	c-0.326-0.004-0.652-0.009-0.979-0.014c-1.013-0.153-2.028-0.452-1.776-1.733C530.543,242.739,531.926,243.111,532.992,242.992z"/>
<path fill-rule="evenodd" clip-rule="evenodd" fill="#F2F7F9" d="M530.99,291.006c0.005,0.666,0.01,1.332,0.015,1.998
	c-0.719-0.151-1.701-0.148-1.476-1.21C529.604,291.443,530.48,291.264,530.99,291.006z"/>
<path fill-rule="evenodd" clip-rule="evenodd" fill="#B8B7A1" d="M381.923,274.088c-0.629-0.378-1.259-0.756-1.888-1.134
	c-0.681-0.995-1.361-1.991-2.041-2.986c0.68-1.992-2.203-3.972-0.02-5.969c3.404,0.793,3.834-2.75,5.836-4.001
	c0.727,2.615-0.466,5.51,1.162,7.994c-1.787,1.46,0.368,2.701,0.229,4.07c-0.08,0.646-0.162,1.293-0.244,1.94
	C383.946,274.031,382.935,274.06,381.923,274.088z"/>
<path fill-rule="evenodd" clip-rule="evenodd" fill="#9D9883" d="M383.811,259.999c-2.002,1.25-2.433,4.794-5.836,4.001
	c0.708-4.085-1.161-7.937-1.084-11.965c1.777-1.836,2.038,0.344,2.862,1.071c1.606,1.415,1.5,4.136,3.823,4.995
	C383.651,258.733,383.731,259.366,383.811,259.999z"/>
<path fill-rule="evenodd" clip-rule="evenodd" fill="#DFE4E6" d="M359.03,296.945c0.654,0.014,1.308,0.026,1.962,0.04
	c0.342,1.923-0.533,3.703-0.391,5.729c0.403,5.774,5.458,7.644,8.409,11.251c-1.146,0.745-0.986,1.932-1.031,3.049
	c-4.488-2.699-7.638-7.291-12.797-9.042c-0.23-1.951-0.54-3.842-3.093-3.995c-0.117-0.275-0.224-0.554-0.32-0.837
	c0.199-1.393-0.434-2.049-1.811-2.044c-0.492-1.355-0.983-2.712-1.475-4.067c0.039-0.649,0.078-1.299,0.12-1.948
	c2.013,0.302,4.813-1.339,5.472,2.276c0.252,1.385,1.392,2.688,2.426,2.756C358.25,300.229,358.199,298.059,359.03,296.945z"/>
<path fill-rule="evenodd" clip-rule="evenodd" fill="#CDD3D6" d="M355.184,307.972c5.158,1.751,8.308,6.343,12.795,9.042
	c0,0,0.008,0.007,0.008,0.007c0.872,1.596,2.001,2.856,3.959,3.037c0.029,0.978,0.058,1.955,0.086,2.933
	c-0.356,0.353-0.714,0.705-1.07,1.058c-3.125-0.483-4.212-3.643-6.598-5.008c-1.233-0.706-2.993-3.78-4.416-0.003
	c-2.333-0.29-5.43,0.948-5.949-2.972c0.247-2.1-3.075-3.601-1.009-6.007c0.856-0.412,1.113-1.205,1.299-2.043l0.448,0.001
	L355.184,307.972z"/>
<path fill-rule="evenodd" clip-rule="evenodd" fill="#D8DDDF" d="M369.01,313.965c-2.95-3.607-8.005-5.477-8.409-11.251
	c-0.142-2.025,0.733-3.806,0.391-5.729c2.899-1.751,4.169-0.48,3.653,2.4c-0.384,2.146-2.523,4.148,0.458,6.023
	c3.015,1.896,3.906-1.388,5.784-2.26c0.298-0.139,0.631-0.199,0.946-0.298c-0.283,2.593-0.611,5.183-0.827,7.782
	C370.885,312.115,371.121,313.716,369.01,313.965z"/>
<path fill-rule="evenodd" clip-rule="evenodd" fill="#D0CDB7" d="M380.988,304.001c-0.077-2.153-0.168-4.317,3.008-4.063
	c0.735,1.849,3.026,2.776,3.005,5.072c-0.012,0.328-0.019,0.655-0.019,0.983c-2.126,4.198-0.409,8.682-0.965,12.997
	c-0.709,0.033-1.418,0.066-2.129,0.101c-0.605-0.045-1.209-0.09-1.813-0.136c-0.362-1.65-0.725-3.299-1.088-4.948
	C380.315,310.671,382.386,307.336,380.988,304.001z"/>
<path fill-rule="evenodd" clip-rule="evenodd" fill="#DFE4E6" d="M371.946,320.058c-1.958-0.181-3.088-1.441-3.959-3.037
	C370.159,316.921,371.886,317.402,371.946,320.058z"/>
<path fill-rule="evenodd" clip-rule="evenodd" fill="#C3C1AA" d="M381.923,274.088c1.012-0.029,2.023-0.057,3.035-0.085
	c0,0,0.221-0.062,0.22-0.061c0.3,2.467-1.629,5.458,1.694,7.215c-0.014,1.603-0.027,3.205-0.039,4.809
	c-1.714,2.553-0.478,5.411-0.834,8.104c-0.196,1.481,0.647,3.488-1.911,3.772c-1.023-2.617-2.046-5.235-3.069-7.853
	C380.363,284.635,382.678,279.449,381.923,274.088z"/>
<path fill-rule="evenodd" clip-rule="evenodd" fill="#D8DDDF" d="M384.087,297.843c2.559-0.284,1.715-2.291,1.911-3.772
	c0.356-2.693-0.88-5.552,0.834-8.104c1.972,6.331,1.688,12.682,0.168,19.044c0.021-2.296-2.27-3.224-3.005-5.072
	C384.026,299.239,384.057,298.541,384.087,297.843z"/>
<path fill-rule="evenodd" clip-rule="evenodd" fill="#D8DDDF" d="M386.871,281.157c-3.323-1.757-1.394-4.748-1.694-7.215
	C388.551,275.688,386.461,278.716,386.871,281.157z"/>
<path fill-rule="evenodd" clip-rule="evenodd" fill="#DFE4E6" d="M553.015,250.006c-0.004-0.338-0.009-0.676-0.014-1.015
	c3.102-1.065,5.653,0.065,8.003,2.002l-0.007,0.009C558.336,250.67,555.676,250.338,553.015,250.006z"/>
<path fill-rule="evenodd" clip-rule="evenodd" fill="#CDD3D6" d="M551.002,270c3.351-1.898,2.271-4.435,1.009-6.998
	c-0.002-0.666-0.005-1.332-0.007-1.997c1.276-0.063,1.948-0.724,1.986-2.011l0.003-0.003c2.351-0.969,4.313-2.845,7.013-2.997
	c1.195,3.002,1.188,6.003-0.004,9.004c-5.04,1.58-3.682,6.463-4.845,9.902c-1.094,3.236-2.084,3.353-4.176,1.096
	C551.652,273.998,550.649,272.109,551.002,270z"/>
<path fill-rule="evenodd" clip-rule="evenodd" fill="#E8EDEF" d="M489.994,307.999c-1.765-5.558-3.785-10.86-10.975-11.009
	c-0.31-4.724,0.083-9.396,1.039-14.025c0.298-0.342,0.598-0.684,0.896-1.025c0,0-0.097-0.088-0.098-0.089
	c1.038,0.043,2.077,0.086,3.117,0.129c0.22,1.41,0.756,2.282,2.256,1.188c1.792-1.308,2.938-3.135,3.758-5.143
	c0.579-1.42,2.635-2.371,1.503-4.327c-0.182-0.313-0.887-0.558-1.277-0.477c-2.17,0.445-2.708,2.346-3.057,4.077
	c-0.391,1.94-0.783,3.585-3.163,3.696c-1.048-6.59,3.313-13.567,9.6-15.526c1.565-0.487,2.239,0.08,2.356,1.5
	c0.847,10.285,3.02,20.703-2.037,30.54c-1.281,2.494-0.563,5.229-1.719,7.691C491.643,306.375,491.8,307.879,489.994,307.999z
	 M488.549,289.076c-1.846,0.529-2.526,2.315-2.484,4.4c0.022,1.105-0.731,3.312,1.378,2.9c1.916-0.373,3.346-2.12,3.5-4.355
	C491.036,290.665,490.998,289.271,488.549,289.076z"/>
<path fill-rule="evenodd" clip-rule="evenodd" fill="#F2F7F9" d="M480.955,281.939c-0.299,0.342-0.599,0.684-0.896,1.025
	C480.357,282.623,480.656,282.281,480.955,281.939z"/>
<path fill-rule="evenodd" clip-rule="evenodd" fill="#D8DDDF" d="M561.006,255.994c-2.699,0.152-4.662,2.027-7.013,2.997
	c-0.022-0.841-0.236-1.583-1.048-2.015c0.005-0.656,0.012-1.312,0.019-1.967c1.023-0.658,1.045-1.329,0.024-2.011
	c0.009-0.997,0.018-1.994,0.026-2.991c2.661,0.333,5.321,0.665,7.982,0.997C561.171,252.666,562.378,254.328,561.006,255.994z"/>
<path fill-rule="evenodd" clip-rule="evenodd" fill="#98927F" d="M354.29,308.016c-0.186,0.838-0.442,1.631-1.299,2.043
	c-0.943-1.474-2.847-1.153-4.039-2.164c0.337-1.646-0.502-3.551,1.079-4.924c0.58,0.057,1.159,0.112,1.739,0.169
	c0.096,0.283,0.203,0.562,0.319,0.837C352.178,305.674,352.715,307.127,354.29,308.016z"/>
<path fill-rule="evenodd" clip-rule="evenodd" fill="#C3C1AA" d="M351.769,303.14c-0.58-0.057-1.159-0.112-1.739-0.169
	c-0.024-0.626-0.048-1.251-0.072-1.876C351.335,301.091,351.968,301.747,351.769,303.14z"/>
<path fill-rule="evenodd" clip-rule="evenodd" fill="#D8DDDF" d="M359.03,296.945c-0.831,1.113-0.779,3.283-2.529,3.167
	c-1.035-0.068-2.174-1.371-2.426-2.756c-0.659-3.615-3.458-1.975-5.472-2.276c-0.32-0.669-0.638-1.339-0.957-2.009
	c3.677-2.447,6.881,0.421,10.296,0.92c0.352,0.309,0.705,0.618,1.058,0.927C359.01,295.593,359.02,296.27,359.03,296.945z"/>
<path fill-rule="evenodd" clip-rule="evenodd" fill="#D0CDB7" d="M495.955,162.011c1.416-3.67,3.651-2.466,5.933-0.998
	c0.418,1.68,1.189,3.153-0.131,5.041c-1.169,1.67-1.807,4.778,0.566,5.491c3.575,1.074,6.789,3.321,10.649,3.451
	c3.254,1.715,6.605,1.51,9.809,0.08c1.242-0.555,2.316-1.491,3.524-0.461c1.127,0.961,0.946,2.551,0.578,3.717
	c-1.327,4.196-0.736,8.47-0.84,12.715c-0.004,1.676-0.007,3.352-0.011,5.028c-0.329,0.65-0.658,1.301-0.987,1.952
	c-1.906,0.045-2.929,1.017-3.062,2.921c-0.249,0.125-0.513,0.193-0.791,0.205c-0.66-0.43-1.912-0.888-1.894-1.287
	c0.337-7.245-4.339-11.961-8.188-17.216c-1.47-2.007-3.036-1.805-4.656-1.446c-1.887,0.418-1.659,1.695-0.409,2.857
	c0.062,0.601,0.122,1.201,0.183,1.801c0.219,0.375,0.438,0.751,0.656,1.127c0.102,0.98,0.203,1.96,0.306,2.94
	c-1.07,0.709-2.141,1.419-3.211,2.128c-0.64,0.011-1.279,0.021-1.92,0.032c-2.296-0.384-3.072-2.359-3.85-4.068
	c-0.592-1.301-0.391-3.011-2.473-3.022c-0.052-0.608-0.104-1.216-0.156-1.824c0.45-1.546,1.734-2.984,1.245-4.644
	C495.219,173.076,496.307,167.511,495.955,162.011z"/>
<path fill-rule="evenodd" clip-rule="evenodd" fill="#A39E87" d="M512.973,174.996c-3.86-0.13-7.074-2.377-10.649-3.451
	c-2.373-0.712-1.735-3.821-0.566-5.491c1.32-1.888,0.549-3.361,0.131-5.041c0.389-0.004,0.778-0.008,1.168-0.012
	c1.6,0.905,3.202,1.206,5.024,0.504c1.634-0.629,3.39-1.08,4.894,0.439c0.455,1.174,1.26,2.109,2.549,2
	c3.44-0.292,5.418,1.972,7.54,4.041c-0.006,0.655-0.013,1.311-0.02,1.966c-2.003-0.652-4.007-1.305-6.01-1.958
	c-0.13,0.087-0.382,0.21-0.368,0.257c0.071,0.249,0.209,0.479,0.324,0.716c0.039,0.583,0.077,1.165,0.116,1.747
	C515.063,171.5,511.181,170.509,512.973,174.996z M509.984,165.053c-2.041,0.58-4.496,0.759-4.742,3.49
	c-0.133,1.472,1.29,2.785,2.599,2.131c2.077-1.038,5.701,0.576,6.172-2.719C514.244,166.338,511.854,165.415,509.984,165.053z"/>
<path fill-rule="evenodd" clip-rule="evenodd" fill="#D0CDB7" d="M523.063,167.985c-2.122-2.069-4.1-4.332-7.54-4.041
	c-1.289,0.109-2.094-0.826-2.549-2c2.925-1.094,5.996-0.917,9.032-1.04c0.037,0.804,0.15,1.568,0.992,1.965
	c1.684,1.911,6.378,1.494,4.658,6.165C526.191,168.275,524.697,167.781,523.063,167.985z"/>
<path fill-rule="evenodd" clip-rule="evenodd" fill="#A39E87" d="M522.998,162.871c-0.842-0.397-0.955-1.162-0.992-1.964
	c0.324-3.006-3.732-2.248-4.045-4.708c2.321,0.621,4.643,1.242,6.964,1.864C525.992,160.351,525.459,161.997,522.998,162.871z"/>
<path fill-rule="evenodd" clip-rule="evenodd" fill="#918B78" d="M517.105,170.713c-0.039-0.583-0.077-1.165-0.116-1.747
	c0.016-0.324,0.03-0.648,0.044-0.973c2.003,0.653,4.007,1.306,6.01,1.958c-0.05,1.589,0.32,3.597-2.455,2.108
	C519.499,171.477,518.271,171.155,517.105,170.713z"/>
<path fill-rule="evenodd" clip-rule="evenodd" fill="#98927F" d="M517.961,156.199c0.313,2.46,4.369,1.702,4.045,4.708
	c-3.036,0.121-6.107-0.056-9.032,1.039c-1.504-1.52-3.26-1.069-4.894-0.44c-1.822,0.702-3.425,0.401-5.024-0.504
	c-0.03-0.829,0.143-1.567,0.903-2.046c2.58-0.438,4.837-1.646,7.049-2.961c1.003,0.021,2.006,0.042,3.009,0.063
	c1.057,1.267,1.63,0.688,2.035-0.533C516.827,155.354,517.507,155.458,517.961,156.199z"/>
<path fill-rule="evenodd" clip-rule="evenodd" fill="#A39E87" d="M511.008,155.994c-2.212,1.315-4.469,2.522-7.049,2.961
	c0.539-3.568,3.113-4.055,6.048-3.996C510.341,155.304,510.674,155.649,511.008,155.994z"/>
<path fill-rule="evenodd" clip-rule="evenodd" fill="#A39E87" d="M516.052,155.524c-0.405,1.222-0.979,1.8-2.035,0.533
	C514.515,155.192,515.21,155.082,516.052,155.524z"/>
<path fill-rule="evenodd" clip-rule="evenodd" fill="#A39E87" d="M491.022,108.074c2.671,0.212,5.5-0.901,7.975,0.954
	c-0.202,2.169,0.782,3.166,2.954,2.987c0.373,0.65,0.75,0.613,1.13,0.007c0.601,0,1.201-0.001,1.802-0.002
	c0.065,0.323,0.107,0.648,0.125,0.977c0.634,3.357,4.265,3.011,6.073,4.917c2.013,0.036,3.702,0.529,4.075,2.881
	c-3.757,0.422-6.796-1.674-10.089-2.88c-0.87-3.386-4.081-1.146-5.854-2.439c-4.317-3.146-6.726-0.369-9.471,2.731
	c-2.135,2.411-1.525,5.551-3.302,8.122c-2.271,3.284-3.068,7.308,0.818,10.544c1.875,1.562,1.645,2.667-0.351,4.245
	c-5.058,4.001-4.947,4.825,0.046,8.889c0.709,1.646,1.946,3.084,1.968,5.002c-0.67,0.019-1.342,0.039-2.013,0.057
	c-0.305-0.015-0.609-0.035-0.914-0.059c-0.151-2.571-1.837-3.098-3.993-2.998c-0.338-0.336-0.675-0.673-1.013-1.009
	c-1.238-5.649,0.2-11.326-0.149-16.943c-0.264-4.23,0.673-7.816,1.995-11.776c1.343-4.021,5.837-6.484,5.152-11.269l0.027-0.024
	c1.43,0.024,2.845,0.026,2.982-1.938C491.024,108.725,491.032,108.4,491.022,108.074z"/>
<path fill-rule="evenodd" clip-rule="evenodd" fill="#B8B7A1" d="M486.954,150.007c-4.993-4.064-5.104-4.888-0.046-8.889
	c1.995-1.578,2.226-2.684,0.351-4.245c-3.887-3.236-3.089-7.26-0.818-10.544c1.776-2.57,1.167-5.711,3.302-8.122
	c2.745-3.1,5.153-5.878,9.471-2.731c1.773,1.293,4.984-0.946,5.854,2.439c-1.643-0.09-3.284-0.204-4.929-0.262
	c-2.063-0.072-4.621,0.219-5.167,2.144c-1.92,6.77-8.206,12.893-3.356,20.828c0.939,1.537,0.481,3.588-1.458,4.083
	C487.11,145.485,486.893,147.565,486.954,150.007z"/>
<path fill-rule="evenodd" clip-rule="evenodd" fill="#A39E87" d="M495.955,162.011c0.352,5.5-0.736,11.065,0.872,16.521
	c0.489,1.66-0.795,3.098-1.242,4.643c-3.063-1.072-0.357-4.803-2.827-6.149c-0.008-0.639-0.018-1.278-0.026-1.917
	c-0.442-3.743,2.76-7.393,0.287-11.188c-0.043-1.034,0.103-2.123-0.845-2.893c-0.219-1.243-0.939-1.978-2.197-2.167
	c-0.004-0.28-0.021-0.558-0.054-0.836c0.022-0.645,0.045-1.29,0.067-1.935C493.118,156.916,494.669,159.331,495.955,162.011z"/>
<path fill-rule="evenodd" clip-rule="evenodd" fill="#9D9883" d="M489.99,156.091c-0.022,0.645-0.045,1.29-0.066,1.934
	c-0.975-0.012-1.95-0.023-2.926-0.035c-0.029-0.975-0.06-1.949-0.09-2.924c0.672-0.019,1.344-0.039,2.014-0.058
	C489.277,155.369,489.634,155.73,489.99,156.091z"/>
<path fill-rule="evenodd" clip-rule="evenodd" fill="#918B78" d="M511.081,117.914c-1.809-1.906-5.439-1.56-6.073-4.917
	C507.652,113.87,511.218,113.606,511.081,117.914z"/>
<path fill-rule="evenodd" clip-rule="evenodd" fill="#9D9883" d="M501.951,112.015c-2.172,0.179-3.156-0.818-2.954-2.987
	c2.442-0.681,3.771,1.924,5.95,2.017c0.005,0.327-0.016,0.651-0.063,0.975c-0.602,0.001-1.202,0.001-1.804,0.002
	C502.703,112.02,502.327,112.018,501.951,112.015z"/>
<path fill-rule="evenodd" clip-rule="evenodd" fill="#918B78" d="M491.022,108.074c0.01,0.326,0.002,0.651-0.025,0.976
	c-1.44-0.041-2.423,0.624-2.982,1.938l-0.027,0.024c-1.319,0.33-2.64,0.659-3.959,0.989c0.324-1.342,0.647-2.684,0.971-4.026
	c0.647-0.008,1.295-0.016,1.942-0.024c0.36-0.298,0.721-0.597,1.08-0.896c0.662-0.065,1.323-0.131,1.985-0.199
	C490.345,107.261,490.684,107.667,491.022,108.074z"/>
<path fill-rule="evenodd" clip-rule="evenodd" fill="#DFE4E6" d="M535.05,242.123c0.65-0.048,1.301-0.096,1.951-0.143
	c0.024,0.333,0.05,0.667,0.075,1C536.276,242.988,535.529,242.872,535.05,242.123z"/>
<path fill-rule="evenodd" clip-rule="evenodd" fill="#A39E87" d="M442.995,263.957c-0.367-4.925-6.188-3.668-7.95-7.013
	c-0.032-0.631-0.063-1.263-0.094-1.895l0.102-0.104c2.455,0.624,4.349-0.637,6.319-1.779c0.344-0.199,0.454,0.053,2.165-3.766
	c0.298-0.665,1.155-1.123,1.824-1.57c1.971-1.317,4.139-2.473,3.172-5.572c2.982,0.523,3.713,4.125,6.728,3.544
	c1.961,1.693,3.921,3.387,5.882,5.08c-1.894,0.405-3.882,0.566-5.663,1.26c-5.835,2.272-7.056,4.851-4.476,8.882
	c-2.238,2.986-0.291,6.452-1.296,9.952c-1.08-1.282-1.673-3.194-3.696-3.044c-0.223-0.092-0.451-0.111-0.686-0.056
	C444.973,266.317,445.537,264.214,442.995,263.957z"/>
<path fill-rule="evenodd" clip-rule="evenodd" fill="#B8B7A1" d="M451.003,261.024c-2.58-4.032-1.359-6.61,4.476-8.882
	c1.781-0.694,3.77-0.855,5.663-1.26c0.616,0.216,1.232,0.432,1.849,0.648c0.104,0.286,0.308,0.441,0.613,0.464
	c0.156,0.315,0.312,0.629,0.466,0.944c-2.681,0.097-4.079,4.005-7.312,2.46c-1.083,2.293-4.88,3.041-3.751,6.593l-0.015,0.017
	C452.172,261.997,451.418,261.853,451.003,261.024z"/>
<path fill-rule="evenodd" clip-rule="evenodd" fill="#D8DDDF" d="M445.326,267.876c0.234-0.055,0.463-0.036,0.686,0.056
	c-1.42,2.008,4.116,4.085-0.061,6.067c-2.703-0.658-4.051-3.669-6.944-3.995c0.074-2.348-0.401-4.775,1.008-6.928
	c0.839,0.378,0.949,1.13,0.987,1.919C441.841,266.859,443.563,267.398,445.326,267.876z"/>
<path fill-rule="evenodd" clip-rule="evenodd" fill="#B8B7A1" d="M454.96,262.047c-0.42,0.776-1.15,0.917-1.936,0.941
	c-0.011-0.327-0.022-0.653-0.032-0.98c0,0,0.015-0.017,0.015-0.017C453.658,262.01,454.309,262.028,454.96,262.047z"/>
<path fill-rule="evenodd" clip-rule="evenodd" fill="#7E7362" d="M484.999,107.975c-0.323,1.342-0.646,2.684-0.971,4.026
	c-0.001,0-0.028,0.028-0.028,0.028c-2.31,0.228-3.677,1.56-3.941,3.789c-0.195,1.642-0.985,2.853-2.18,3.771
	c-2.528,1.944-3.225,4.505-2.866,7.508c0.722,6.061-0.745,11.995-1.114,17.992c-0.116,1.883-0.919,3.84-1.855,5.512
	c-0.525,0.938-3.124,0.786-2.398,2.475c0.777,1.81,2.557,0.478,3.938,0.209c1.135-0.221,2.306-0.257,3.46-0.376
	c0.639-0.016,1.276-0.031,1.915-0.045c0.994,0.381,1.928,1.68,3.044,0.203c1.153,1.014,2.147,2.355,3.994,1.941
	c0.305,0.024,0.609,0.044,0.914,0.059c0.029,0.975,0.06,1.95,0.089,2.924c-1.6,0.896-0.399,3.184-2.02,4.07
	c-2.861-2.381-6.13-3.821-9.851-4.089c-1.682-0.122-3.573-0.039-3.889,2.086c-0.344,2.318,1.815,1.949,3.093,2.189
	c3.527,0.661,7.09,1.131,10.639,1.677c3.329,3.398,0.263,7.408,1.057,11.049c-3.307,0.854-4.93,2.548-2.995,6.014
	c-0.688,0.671-1.374,1.343-2.061,2.015c-2.571-3.955,0.173-7.91,0.351-11.797c0.189-4.105-1.325-4.415-4.335-4.217
	c-0.692-0.353-1.385-0.706-2.077-1.058c-1.481-3.188-4.246-3.356-6.886-2.301c-2.216,0.886-6.382,1.626-5.228,4.548
	c1.13,2.862,3.682-1.146,5.817-0.962c0.163,0.014,0.325,0.037,0.487,0.056c-1.029,2.734-2.302,5.093-5.872,4.828
	c-1.722-0.127-2.357,1.037-2.059,2.591c1.009,5.241-0.336,10.354-0.712,15.522c-0.232,3.199,0.544,6.052,3.572,7.817
	c-0.843,1.31-2.804,2.883-3.305,1.335c-0.986-3.045-5.719-4.247-4.093-8.292c2.058-5.122,3.897-10.037-0.01-15.289
	c-1.524-2.047-0.222-5.979,1.182-5.58c5.1,1.452,1.92-1.885,2.036-3.308c0.398-1.286,0.796-2.571,1.193-3.856
	c3.727-0.467,4.054-4.024,5.744-6.337c0.588-0.804,0.563-1.28-0.599-1.744c-4.333-1.728-1.32-5.463-0.358-6.217
	c5.644-4.431,5.609-10.839,5.953-16.719c0.309-5.288-0.964-10.639,3.194-15.023c3.04-0.873,1.824-4.572,3.999-6.02
	c0.338-0.338,0.676-0.676,1.015-1.013c1.901-0.038,2.85-1.087,3.079-2.899C483.849,107.069,484.587,107.174,484.999,107.975z"/>
<path fill-rule="evenodd" clip-rule="evenodd" fill="#604F3B" d="M480.972,183.001c0.687-0.671,1.373-1.343,2.06-2.015
	c2.634-1.826,5.421-3.194,8.756-2.919c0.039,1.636,0.078,3.272,0.117,4.909c-0.489,0.27-1.319,0.461-1.401,0.824
	c-0.232,1.015,0.709,1.064,1.416,1.221c-0.167,4.394-2.042,3.166-4.131,1.258c-1.163-1.063-2.113-2.792-4.063-1.975
	c-2.113,0.886-1.674,2.92-1.716,4.675c-0.016,0.65,0.039,1.302,0.062,1.954c-5.493,2.813-12.487,3.127-15.831,9.529
	c-0.471,0.902-9.639,4.391-10.423,3.992c-0.26-0.132-0.557-0.45-0.597-0.718c-0.831-5.616-5.176-9.665-6.465-15.234
	c-1.373-5.929-3.472-11.643-2.75-17.863c0.145-1.242,0.421-3.8,1.184-3.208c4.56,3.535,8.395-3.451,12.655-0.534
	c-0.117,1.422,3.063,4.759-2.038,3.307c-1.404-0.4-2.706,3.532-1.182,5.58c3.907,5.252,2.068,10.167,0.01,15.289
	c-1.625,4.045,3.107,5.248,4.093,8.292c0.501,1.548,2.462-0.025,3.305-1.335c1.722-0.798,2.092-2.276,2.005-3.984
	c0.964-0.475,1.928-0.949,2.893-1.421c0.343,0.694,0.864,0.682,1.587,0.633c5.313-0.358,6.719-5.058,9.397-8.341
	C480.266,184.278,480.619,183.639,480.972,183.001z"/>
<path fill-rule="evenodd" clip-rule="evenodd" fill="#7E7362" d="M417.962,234.057c-0.023-0.313-0.021-0.626,0.005-0.938
	c4.014-2.924,9.362-1.806,13.594-5.096c3.235-2.515,4.803-6.084,7.777-8.671c2.156-1.876,4.048-2.535,6.602-2.316
	c0.04,0.666,0.081,1.332,0.121,1.997c0.201,0.333,0.402,0.667,0.603,1.001c0.067,0.668,0.135,1.337,0.204,2.005
	c-1.729,3.985-0.877,7.933,0.174,11.879c-0.643,4.799-2.899,7.551-7.868,9.372c-3.482,1.275-5.182,1.052-6.733-1.668
	c-1.236-2.167-2.6-2.743-4.781-1.668c-2.511,1.237-4.263,0.526-4.513-2.297C422.839,234.175,420.711,233.78,417.962,234.057z"/>
<path fill-rule="evenodd" clip-rule="evenodd" fill="#604F3B" d="M467.992,241.005c-0.394-1.178-1.667-2.417-0.184-3.556
	c1.039-0.797,2.064-0.123,3.171,0.432c6.423,3.22,10.194,2.907,13.025-0.878c0.072-0.132,0.146-0.264,0.218-0.396
	c-0.075,0.129-0.151,0.258-0.227,0.387c-1.915-0.061-2.904-1.062-3.01-2.961c1.349-0.58,1.796-1.751,2.201-3.056
	c0.396-1.278,1.251-2.6,2.682-2.466c2.013,0.188,0.353,2.62,1.653,3.428c1.036-0.373-0.144-3.642,2.642-1.806
	c2.345,1.546,5.165,0.992,7.825,0.882c-0.003,1.321-0.007,2.643-0.011,3.965l-0.007-0.002c-1.517,1.39-2.221,3.282-2.751,5.141
	c-0.431,1.512-0.613,2.733-2.564,2.998c-6.485,0.878-13.109,2.722-19.05-1.513c-2.621-1.868-2.198,0.099-2.571,1.421
	c-1.142-0.028-2.325,0.083-3.167-0.949C467.909,241.719,467.951,241.362,467.992,241.005z"/>
<path fill-rule="evenodd" clip-rule="evenodd" fill="#675E4D" d="M497.989,231.015c-2.66,0.109-5.48,0.664-7.825-0.882
	c-2.785-1.836-1.605,1.433-2.642,1.806c-1.301-0.808,0.359-3.24-1.653-3.428c-1.431-0.133-2.285,1.188-2.682,2.466
	c-0.405,1.305-0.853,2.476-2.201,3.056c0-2.254,0-4.51,0-7.875c-0.96,1.885-1.465,2.875-1.97,3.865
	c-0.685,0.009-1.369,0.018-2.054,0.026c-0.015-0.675-0.029-1.35-0.043-2.025c1.02-1.525,2.58-2.928,1.131-5.009
	c-0.709-1.159-1.906-1.022-3.01-1.133c-0.025-1.707-0.184-3.799-1.809-4.346c-4.171-1.404-3.085-5.225-4.151-8.029
	c-0.268-0.706-0.074-1.697,0.832-2.135c0.925-0.447,1.571,0.032,2.09,0.768c0.668,0.949,1.33,1.903,1.995,2.855
	c-0.895,2.808,2.576,8.655,5.901,9.942c0.447,0.679,0.818,0.744,1.071-0.134c1.711-1.472,3.309,0.792,4.994,0.154
	c0.26,3.76,2.835,5.446,5.965,4.765c5.266-1.145,10.135-0.304,15.055,1.258C505.11,230.83,501.555,230.934,497.989,231.015z"/>
<path fill-rule="evenodd" clip-rule="evenodd" fill="#604F3B" d="M473.998,210.995c-0.665-0.952-1.327-1.906-1.995-2.855
	c-0.519-0.735-1.165-1.215-2.09-0.768c-0.906,0.438-1.1,1.429-0.832,2.135c1.066,2.805-0.02,6.625,4.151,8.029
	c1.625,0.547,1.783,2.639,1.809,4.346c-3.265,0.014-4.925-3.179-7.827-3.947c-0.469-0.124-1.169-1.28-1.035-1.483
	c1.864-2.848,0.312-6.246,1.339-8.984c1.14-3.035,3.131-6.287,7.154-2.091c1.077,1.123,3.4,1.051,5.153,1.529
	c0.035,0.339,0.068,0.676,0.102,1.015c-1.019,0.767-0.885,1.59-0.081,2.401c1.67,1.688,0.765,2.81-0.806,3.8
	C476.774,214.023,475.819,211.811,473.998,210.995z"/>
<path fill-rule="evenodd" clip-rule="evenodd" fill="#7E7362" d="M491.904,182.976c-0.039-1.636-0.078-3.272-0.115-4.909
	c0.324-0.347,0.646-0.694,0.967-1.041c2.472,1.346-0.233,5.076,2.829,6.148c0.05,0.608,0.102,1.216,0.155,1.824
	c-1.419,1.856-0.524,3.964-0.648,5.962c0.312,1.072,0.623,2.143,0.935,3.215c-0.763,0.936-1.833,0.738-2.842,0.772
	c-2.71-4.091-7.012-3.78-11.114-4.015c-0.022-0.652-0.077-1.304-0.062-1.954c0.042-1.754-0.397-3.789,1.716-4.675
	c1.95-0.818,2.9,0.911,4.063,1.975c2.089,1.908,3.964,3.136,4.132-1.258C491.915,184.339,491.909,183.657,491.904,182.976z"/>
<path fill-rule="evenodd" clip-rule="evenodd" fill="#7E7362" d="M467.992,241.005c-0.041,0.357-0.083,0.714-0.123,1.07
	c-2.871,0.279-6.897-1.462-6.862,3.915c-2.677-2.33-5.355-4.66-8.034-6.991c-0.042-1.984,0.454-3.749,2.072-5.053
	C458.933,237.085,463.109,239.692,467.992,241.005z"/>
<path fill-rule="evenodd" clip-rule="evenodd" fill="#604F3B" d="M493.185,194.948c1.009-0.034,2.079,0.163,2.842-0.773
	c0.675-0.125,1.351-0.25,2.026-0.374c1.315-0.228,2.632-0.457,3.947-0.685c0.65,1.179,1.939,0.83,2.92,1.219
	c0.304,2.843-0.15,4.796-3.844,4.339c-1.704-0.211-3.519,0.468-5.284,0.744c-0.933-0.105-1.865-0.21-2.798-0.314
	c-0.011-0.873-0.188-1.667-1.02-2.15C492.021,196.068,492.289,195.319,493.185,194.948z"/>
<path fill-rule="evenodd" clip-rule="evenodd" fill="#7E7362" d="M491.975,196.952c0.831,0.483,1.009,1.277,1.02,2.149
	c-1.133,1.527,0.306,3.13-0.135,4.678c-0.336,0.33-0.672,0.66-1.007,0.991c-0.271,0.095-0.551,0.161-0.836,0.2
	c-0.207-0.141-0.436-0.203-0.688-0.184c-0.462-0.271-0.923-0.542-1.383-0.813c-1.888,0.104-3.775,0.207-5.662,0.311l-0.345-0.348
	c-0.067-1.365-2.39-3.615,1.022-3.683C487.181,200.189,489.366,198.185,491.975,196.952z"/>
<path fill-rule="evenodd" clip-rule="evenodd" fill="#675E4D" d="M447.042,233.917c-1.051-3.945-1.904-7.893-0.174-11.878
	c1.894,2.768,5.316,4.363,6.111,7.973c-4.311,0.015-3.804,3.235-3.988,5.996l0.014-0.013
	C448.351,235.303,447.697,234.61,447.042,233.917z"/>
<path fill-rule="evenodd" clip-rule="evenodd" fill="#7E7362" d="M448.992,236.008c0.184-2.761-0.323-5.981,3.988-5.996
	c0.311,0.666,0.622,1.332,0.934,1.997C451.749,232.698,452.341,236.778,448.992,236.008z"/>
<path fill-rule="evenodd" clip-rule="evenodd" fill="#7E7362" d="M479.927,207.919c-0.033-0.338-0.066-0.675-0.102-1.014
	c0.104-1.969,0.858-3.257,3.113-2.969c0,0,0.345,0.348,0.342,0.345c-0.721,2.021,0.871,3.224,1.672,4.708
	c-0.965,0.01-1.929,0.02-2.894,0.03C481.589,208.188,480.766,208.037,479.927,207.919z"/>
<path fill-rule="evenodd" clip-rule="evenodd" fill="#675E4D" d="M448.992,236.008c3.349,0.77,2.757-3.311,4.921-3.999
	c0.829,0.382,1.078,1.103,1.132,1.938c-1.619,1.303-2.114,3.068-2.072,5.052c-1.054-0.66-2.109-1.319-3.164-1.979
	c-0.268-0.342-0.536-0.684-0.804-1.025L448.992,236.008z"/>
<path fill-rule="evenodd" clip-rule="evenodd" fill="#604F3B" d="M478.051,223.016c1.449,2.081-0.111,3.483-1.131,5.009
	C473.541,225.507,476.642,224.452,478.051,223.016z"/>
<path fill-rule="evenodd" clip-rule="evenodd" fill="#604F3B" d="M476.963,230.05c0.685-0.009,1.369-0.018,2.054-0.026
	c0,0.979,0,1.958,0,3.113C477.191,232.588,477.219,231.231,476.963,230.05z"/>
<path fill-rule="evenodd" clip-rule="evenodd" fill="#604F3B" d="M463.969,205.743c-0.111-0.092-0.222-0.184-0.333-0.276
	c0.128-0.07,0.262-0.202,0.383-0.191c0.12,0.011,0.227,0.167,0.338,0.259C464.228,205.604,464.099,205.673,463.969,205.743z"/>
<path fill-rule="evenodd" clip-rule="evenodd" fill="#675E4D" d="M446.665,220.035c-0.201-0.334-0.402-0.668-0.603-1.001
	C446.263,219.368,446.464,219.701,446.665,220.035z"/>
<path fill-rule="evenodd" clip-rule="evenodd" fill="#675E4D" d="M478.968,110.98c-2.175,1.448-0.959,5.147-3.999,6.02
	c-3.284-1.194-2.237-3.01-0.489-4.6C475.669,111.317,477.289,110.881,478.968,110.98z"/>
<path fill-rule="evenodd" clip-rule="evenodd" fill="#675E4D" d="M483.062,107.067c-0.229,1.813-1.178,2.862-3.079,2.899
	C480.122,108.058,481.117,107.059,483.062,107.067z"/>
<path fill-rule="evenodd" clip-rule="evenodd" fill="#7E7362" d="M488.021,107.054c-0.359,0.299-0.72,0.598-1.08,0.896
	C487.302,107.652,487.661,107.353,488.021,107.054z"/>
<path fill-rule="evenodd" clip-rule="evenodd" fill="#C3C1AA" d="M376.89,252.034c-0.077,4.028,1.793,7.88,1.084,11.965
	c-2.184,1.997,0.7,3.977,0.02,5.969c-0.636-0.079-1.272-0.158-1.908-0.237c-0.271-0.269-0.542-0.538-0.817-0.808
	c-0.415-0.359-0.828-0.718-1.24-1.078c-0.295-0.287-0.589-0.573-0.885-0.86c-0.376-0.341-0.75-0.682-1.125-1.023
	c0,0,0.018,0.017,0.018,0.016c-0.341-0.34-0.681-0.681-1.021-1.021l0.025,0.026c-0.344-0.343-0.687-0.686-1.031-1.028
	c0,0,0.043,0.017,0.043,0.017c-0.029-0.956-0.057-1.912-0.085-2.868c2.722-2.485,4.693-5.41,5.346-9.109
	C375.838,252.009,376.364,252.021,376.89,252.034z"/>
<path fill-rule="evenodd" clip-rule="evenodd" fill="#918B78" d="M375.313,251.997c-0.653,3.699-2.624,6.625-5.347,9.109
	c-0.963-0.146-1.927-0.29-2.89-0.435c0.042-0.269-0.026-0.505-0.205-0.71c-0.005-0.338-0.13-0.624-0.375-0.858
	c0.083-0.7,0.166-1.4,0.247-2.1C370.636,257.11,371.332,251.741,375.313,251.997z"/>
<path fill-rule="evenodd" clip-rule="evenodd" fill="#E8EDEF" d="M550.981,258.981c-0.361,0.972-1.034,1.635-1.992,2.018
	C547.654,258.353,549.951,259.292,550.981,258.981z"/>
<path fill-rule="evenodd" clip-rule="evenodd" fill="#DFE4E6" d="M552.988,252.997c1.021,0.683,0.999,1.353-0.024,2.011
	C552,254.326,552.006,253.655,552.988,252.997z"/>
<path fill-rule="evenodd" clip-rule="evenodd" fill="#D8DDDF" d="M553.99,258.994c-0.038,1.287-0.71,1.948-1.986,2.011
	C552.037,259.713,552.706,259.049,553.99,258.994z"/>
<path fill-rule="evenodd" clip-rule="evenodd" fill="#918B78" d="M461.008,245.99c-0.036-5.377,3.99-3.636,6.861-3.915
	c0.841,1.032,2.024,0.922,3.166,0.95c1.994,1.354,3.988,2.708,5.982,4.062c-0.868,0.984-2.044,0.958-3.188,0.902
	c-4.385-0.211-5.722,1.652-4.076,5.749c0.29,0.724,0.157,1.617,0.22,2.432c-0.631-0.171-1.262-0.343-1.892-0.516
	c-0.886-0.824-1.815-1.549-3.135-1.392c0.017-0.373,0.032-0.744,0.048-1.114c-0.464-0.384-0.928-0.768-1.393-1.152
	c-0.304-0.023-0.508-0.178-0.611-0.465C463.257,249.35,461.808,247.786,461.008,245.99z"/>
<path fill-rule="evenodd" clip-rule="evenodd" fill="#A39E87" d="M469.974,256.168c-0.063-0.815,0.07-1.708-0.22-2.432
	c-1.646-4.097-0.309-5.959,4.076-5.749c1.144,0.055,2.319,0.082,3.188-0.903c0.738-0.201,1.581-0.918,2.018,0.396
	c-1.395,3.484-2.803,6.973,0.001,10.461c-0.609,1.458-1.785,2.053-3.284,2.156C473.826,258.789,471.899,257.479,469.974,256.168z"/>
<path fill-rule="evenodd" clip-rule="evenodd" fill="#9D9883" d="M475.752,260.099c1.499-0.104,2.675-0.699,3.284-2.156
	c1.011-0.076,2.021-0.152,3.032-0.229c0.683,0.111,1.365,0.222,2.048,0.333c-1.335,1.326-2.669,2.652-4.003,3.978
	c-1.071,0-2.142,0-3.212,0C476.518,261.384,476.135,260.742,475.752,260.099z"/>
<path fill-rule="evenodd" clip-rule="evenodd" fill="#CDD3D6" d="M464.995,253.146c-0.016,0.371-0.031,0.741-0.048,1.114
	c-1.609,4.802-6.531,5.354-9.987,7.786c-0.651-0.018-1.303-0.037-1.954-0.056c-1.129-3.552,2.669-4.299,3.751-6.593
	c3.233,1.545,4.631-2.363,7.312-2.46C464.378,253.013,464.686,253.083,464.995,253.146z"/>
<path fill-rule="evenodd" clip-rule="evenodd" fill="#7E7362" d="M479.035,247.486c-0.437-1.319-1.279-0.601-2.018-0.4
	c-1.994-1.354-3.988-2.708-5.982-4.061c0.373-1.322-0.05-3.289,2.571-1.421c5.94,4.235,12.564,2.392,19.05,1.513
	c1.951-0.265,2.134-1.486,2.564-2.998c0.53-1.859,1.234-3.751,2.751-5.141c0.525,1.778-1.256,4.937,2.404,4.847
	c2.732-0.067,2.996-2.579,2.53-4.503c-1.145-4.734-3.229-0.701-4.928-0.341c0.004-1.322,0.008-2.644,0.011-3.965
	c3.565-0.082,7.121-0.185,8.995-4.035c0.026-0.639,0.053-1.277,0.078-1.916c3.324-2.156,1.819-6.401,3.927-9.083
	c-0.035-1.944-0.373-4.009,1.989-5c5.805,1.278,2.167,3.425,0.437,5.276c-1.229,1.315-3.689,2.691,0.589,2.748l-0.01-0.01
	c-0.026,0.328-0.035,0.656-0.027,0.984c-1.497,2.305-3.021,4.584-3.888,7.24c-0.938,2.876-0.101,4.276,3.042,3.967
	c-0.363,0.944-0.727,1.889-1.09,2.833c-1.539,2.922-5.233,3.331-6.992,5.996c-1.726,1.626-3.45,3.252-5.175,4.878
	c-1.885,0.625-4.322-0.907-5.757,1.477c-3.277-0.505-5.972,1.7-9.085,1.956C483.256,246.4,481.087,247.365,479.035,247.486z"/>
<path fill-rule="evenodd" clip-rule="evenodd" fill="#E8EDEF" d="M510.013,298.994c-1.269,2.896,1.516,6.255-1.027,9.006
	c-1.955-2.528-0.854-5.453-0.934-8.178c-0.181-6.142-0.097-12.293-0.023-18.439c0.02-1.673-0.77-3.863,1.955-4.397
	c0.158,1.386-0.418,2.96,1.03,4.015c-0.002,0.665-0.004,1.329-0.005,1.994c-0.001,1.337-0.001,2.674-0.001,4.011
	C511.557,291.074,510.178,294.983,510.013,298.994z"/>
<path fill-rule="evenodd" clip-rule="evenodd" fill="#D0CDB7" d="M485.022,248.328c3.113-0.258,5.808-2.463,9.084-1.961
	c0.862,0.763,2.051,1.303,1.917,2.761c-0.299,0.298-0.599,0.597-0.898,0.895c-0.878-0.02-1.692,0.089-2.099,1.029
	c0,0,0.018-0.019,0.018-0.018c-0.336,0.335-0.672,0.671-1.008,1.006l0.013,0.011c-1.304-0.048-1.963,0.591-2.009,1.884
	c-0.66,0.357-1.321,0.714-1.982,1.071c-0.351,0.003-0.7,0.007-1.05,0.01c-2.276-1.02-2-3.067-2.01-4.998
	C485.006,249.455,485.015,248.891,485.022,248.328z"/>
<path fill-rule="evenodd" clip-rule="evenodd" fill="#DFE4E6" d="M483.994,280.994c2.38-0.11,2.772-1.756,3.163-3.696
	c0.349-1.731,0.887-3.632,3.057-4.077c0.391-0.081,1.096,0.164,1.277,0.477c1.132,1.956-0.924,2.907-1.503,4.327
	c-0.82,2.008-1.966,3.835-3.758,5.143c-1.5,1.094-2.036,0.222-2.256-1.188C483.986,281.651,483.993,281.323,483.994,280.994z"/>
<path fill-rule="evenodd" clip-rule="evenodd" fill="#C3C1AA" d="M484.998,250.018c0.01,1.931-0.267,3.978,2.01,4.998
	c0.004,0.348,0.008,0.696,0.013,1.045c0,0,0.044-0.067,0.044-0.066c-0.356,0.33-0.712,0.66-1.068,0.99l-0.216,0.129
	c0,0-0.231-0.1-0.232-0.1c-0.513,0.344-1.024,0.688-1.536,1.031l0.104,0.002c-0.683-0.111-1.365-0.222-2.049-0.33
	C481.794,254.677,478.954,250.657,484.998,250.018z"/>
<path fill-rule="evenodd" clip-rule="evenodd" fill="#D8DDDF" d="M510.922,263.965c5.144,2.439,0.588,6.038,1.079,9.033
	c-0.671-0.331-1.343-0.662-2.014-0.993c-1.11-0.746-0.953-1.906-0.984-3.005c3.932-0.965,0.559-3.364,0.986-5.018
	C510.3,263.966,510.61,263.96,510.922,263.965z"/>
<path fill-rule="evenodd" clip-rule="evenodd" fill="#DFE4E6" d="M509.987,272.005c0.671,0.331,1.343,0.662,2.014,0.993
	c0.012,2.666,0.023,5.331,0.035,7.997c-0.341,0.001-0.682,0.003-1.022,0.005c-1.448-1.055-0.872-2.629-1.03-4.015
	C509.984,275.325,509.986,273.665,509.987,272.005z"/>
<path fill-rule="evenodd" clip-rule="evenodd" fill="#B8B7A1" d="M496.023,249.127c0.134-1.458-1.055-1.998-1.917-2.761
	c1.436-2.381,3.873-0.848,5.758-1.474C499.136,246.805,497.528,247.92,496.023,249.127z"/>
<path fill-rule="evenodd" clip-rule="evenodd" fill="#DFE4E6" d="M509.989,263.982c-0.428,1.653,2.945,4.053-0.986,5.018
	C507.618,266.99,506.951,265.122,509.989,263.982z"/>
<path fill-rule="evenodd" clip-rule="evenodd" fill="#B8B7A1" d="M490.04,253.935c0.046-1.293,0.705-1.933,2.009-1.884
	C492.056,253.4,491.237,253.87,490.04,253.935z"/>
<path fill-rule="evenodd" clip-rule="evenodd" fill="#B8B7A1" d="M493.026,251.051c0.406-0.94,1.221-1.049,2.099-1.029
	C494.615,250.751,493.983,251.232,493.026,251.051z"/>
<path fill-rule="evenodd" clip-rule="evenodd" fill="#9D9883" d="M484.012,258.045c0.512-0.343,1.023-0.687,1.536-1.031
	C485.036,257.358,484.524,257.702,484.012,258.045z"/>
<path fill-rule="evenodd" clip-rule="evenodd" fill="#9D9883" d="M485.996,256.984c0.356-0.33,0.712-0.66,1.068-0.99
	C486.708,256.324,486.353,256.654,485.996,256.984z"/>
<path fill-rule="evenodd" clip-rule="evenodd" fill="#9D9883" d="M487.021,256.061c-0.005-0.349-0.009-0.697-0.013-1.045
	c0.35-0.003,0.699-0.006,1.05-0.01C487.712,255.357,487.366,255.709,487.021,256.061z"/>
<path fill-rule="evenodd" clip-rule="evenodd" fill="#B8B7A1" d="M492.036,252.04c0.336-0.335,0.672-0.671,1.008-1.006
	C493.024,251.685,492.688,252.021,492.036,252.04z"/>
<path fill-rule="evenodd" clip-rule="evenodd" fill="#D8DDDF" d="M511.014,281c0.341-0.002,0.682-0.004,1.022-0.005
	c3.887,2.276,3.848,6.537,2.595,9.365c-1.42,3.204-1.885,6.395-2.602,9.641c-0.672-0.336-1.344-0.671-2.017-1.006
	c0.165-4.011,1.544-7.92,0.995-11.989c2.822-1.336,2.822-2.673,0.001-4.011C511.01,282.329,511.012,281.665,511.014,281z"/>
<path fill-rule="evenodd" clip-rule="evenodd" fill="#D8DDDF" d="M380.988,304.001c1.398,3.335-0.672,6.67-0.001,10.006
	C376.691,310.671,379.522,307.336,380.988,304.001z"/>
<path fill-rule="evenodd" clip-rule="evenodd" fill="#D8DDDF" d="M376.086,269.732c0.636,0.079,1.272,0.158,1.908,0.237
	c0.68,0.995,1.36,1.991,2.041,2.986C376.614,274.459,376.035,272.482,376.086,269.732z"/>
<path fill-rule="evenodd" clip-rule="evenodd" fill="#DFE4E6" d="M367.076,260.67c0.963,0.145,1.927,0.29,2.89,0.435
	c0.029,0.957,0.057,1.913,0.086,2.868C367.526,264.255,366.78,262.933,367.076,260.67z"/>
<path fill-rule="evenodd" clip-rule="evenodd" fill="#DFE4E6" d="M366.497,259.103c0.245,0.234,0.37,0.52,0.375,0.858
	c-0.38-0.153-0.759-0.306-1.138-0.459C365.988,259.369,366.242,259.235,366.497,259.103z"/>
<path fill-rule="evenodd" clip-rule="evenodd" fill="#DFE4E6" d="M370.009,263.957c0.344,0.342,0.687,0.685,1.031,1.028
	C370.697,264.642,370.353,264.299,370.009,263.957z"/>
<path fill-rule="evenodd" clip-rule="evenodd" fill="#DFE4E6" d="M372.019,265.963c0.374,0.341,0.749,0.682,1.125,1.023
	C372.77,266.646,372.394,266.304,372.019,265.963z"/>
<path fill-rule="evenodd" clip-rule="evenodd" fill="#D8DDDF" d="M374.029,267.847c0.413,0.359,0.825,0.719,1.24,1.078
	C374.857,268.565,374.443,268.206,374.029,267.847z"/>
<path fill-rule="evenodd" clip-rule="evenodd" fill="#DFE4E6" d="M371.015,264.958c0.34,0.34,0.681,0.681,1.021,1.021
	C371.696,265.639,371.355,265.299,371.015,264.958z"/>
<path fill-rule="evenodd" clip-rule="evenodd" fill="#918B78" d="M449.005,235.995c0.268,0.342,0.536,0.684,0.806,1.025
	c0.443,3.779,4.21,5.497,5.449,8.781c-3.014,0.581-3.746-3.021-6.728-3.544c0.967,3.099-1.201,4.254-3.172,5.572
	c-0.669,0.448-1.526,0.905-1.824,1.57c-1.711,3.818-1.821,3.567-2.165,3.766c-1.97,1.142-3.864,2.402-6.319,1.779
	c-1.409-2.323-4.067-4.231-2.347-7.601c0.164-0.32-0.837-1.245-1.313-1.878c-2.226-2.965-5.41-2.498-8.5-2.365
	c-0.665-0.662-1.33-1.323-1.996-1.984c0.27-2.872-2.671-4.41-2.934-7.061c2.749-0.276,4.876,0.119,5.185,3.601
	c0.25,2.823,2.002,3.534,4.513,2.297c2.181-1.075,3.545-0.499,4.781,1.668c1.551,2.721,3.25,2.944,6.733,1.668
	c4.969-1.82,7.225-4.573,7.868-9.372C447.697,234.61,448.351,235.303,449.005,235.995z"/>
<path fill-rule="evenodd" clip-rule="evenodd" fill="#A39E87" d="M422.893,243.101c3.09-0.132,6.274-0.6,8.5,2.365
	c0.475,0.633,1.476,1.558,1.313,1.878c-1.72,3.37,0.938,5.278,2.347,7.601c0,0-0.101,0.104-0.101,0.103
	c-2.374,0.164-4.635-0.35-6.849-1.144c-0.047-1.297-0.095-2.594-0.142-3.891c-0.473-2.758-3.582-2.312-4.905-4.037
	C423.001,245.018,422.947,244.059,422.893,243.101z"/>
<path fill-rule="evenodd" clip-rule="evenodd" fill="#B8B7A1" d="M423.056,245.976c1.323,1.725,4.433,1.278,4.905,4.037
	C426.093,248.95,420.351,252.595,423.056,245.976z"/>
<path fill-rule="evenodd" clip-rule="evenodd" fill="#B8B7A1" d="M428.103,253.904c2.214,0.794,4.475,1.308,6.849,1.144
	c0.031,0.632,0.062,1.264,0.094,1.896C432.699,256.004,428.423,259.474,428.103,253.904z"/>
<path fill-rule="evenodd" clip-rule="evenodd" fill="#CDD3D6" d="M445.326,267.876c-1.763-0.478-3.484-1.018-4.324-2.881
	c0.833-0.023,1.585-0.199,1.993-1.038C445.537,264.214,444.973,266.317,445.326,267.876z"/>
<path fill-rule="evenodd" clip-rule="evenodd" fill="#F2F7F9" d="M516.703,235.79c0.792,0.086,1.583,0.172,2.375,0.258
	c0.015,0.301,0.015,0.601,0.002,0.902C518.064,237.021,517.277,236.623,516.703,235.79z"/>
<path fill-rule="evenodd" clip-rule="evenodd" fill="#7E7362" d="M520.026,216.066c-0.047,0.662-0.094,1.323-0.141,1.985
	c-2.93,0.098-2.897-1.88-2.897-3.981c0-3.455,1.158-7.016-0.813-10.318c2.415,0.567,4.454,0.409,5.019-2.599
	c0.278-0.012,0.542-0.081,0.791-0.205c2.015,0.067,2.935-1.011,3.062-2.921c0.329-0.651,0.658-1.302,0.987-1.952
	c3.367,4.497,0.681,8.604-0.821,12.785c-0.394,0.723-0.788,1.445-1.184,2.169c-1.201-2.939-2.306-0.851-2.821,0.261
	C520.529,212.75,520.395,214.462,520.026,216.066z"/>
<path fill-rule="evenodd" clip-rule="evenodd" fill="#675E4D" d="M520.026,216.066c0.368-1.604,0.503-3.316,1.181-4.776
	c0.516-1.111,1.62-3.2,2.821-0.261c-0.661,1.315-1.322,2.631-1.983,3.945C521.372,215.338,520.699,215.702,520.026,216.066z"/>
<path fill-rule="evenodd" clip-rule="evenodd" fill="#C3C1AA" d="M354.29,308.016c-1.575-0.889-2.111-2.342-2.202-4.039
	c2.554,0.153,2.863,2.044,3.094,3.995c0.002,0-0.444,0.045-0.444,0.045L354.29,308.016z"/>
<path fill-rule="evenodd" clip-rule="evenodd" fill="#DFE4E6" d="M488.549,289.076c2.449,0.194,2.487,1.589,2.394,2.945
	c-0.154,2.235-1.584,3.982-3.5,4.355c-2.109,0.411-1.355-1.795-1.378-2.9C486.022,291.392,486.703,289.605,488.549,289.076z"/>
<path fill-rule="evenodd" clip-rule="evenodd" fill="#B8B7A1" d="M521.193,201.153c-0.564,3.008-2.604,3.166-5.021,2.6
	c-0.363-0.585-0.727-1.172-1.09-1.758l0.196,0.135c0.513-0.355,1.344-0.61,1.49-1.079c1.82-5.812-4.541-15.822-10.723-16.989
	c-1.25-1.163-1.478-2.439,0.409-2.857c1.62-0.359,3.187-0.561,4.656,1.446c3.849,5.255,8.524,9.971,8.188,17.216
	C519.281,200.265,520.533,200.723,521.193,201.153z"/>
<path fill-rule="evenodd" clip-rule="evenodd" fill="#918B78" d="M506.047,184.062c6.182,1.167,12.543,11.178,10.723,16.989
	c-0.146,0.469-0.978,0.724-1.492,1.078c-0.36-2.742-0.247-5.544-1.362-8.18c-0.96-2.271-2.423-2.911-4.64-1.853
	c-0.308-1.095-0.829-1.983-2.084-2.166c-0.103-0.98-0.204-1.96-0.305-2.939c-0.219-0.375-0.438-0.751-0.657-1.127
	C506.169,185.262,506.108,184.662,506.047,184.062z"/>
<path fill-rule="evenodd" clip-rule="evenodd" fill="#B8B7A1" d="M502,193.116c-1.315,0.228-2.632,0.457-3.947,0.685
	c-0.266-1.698-1.189-2.71-2.961-2.84c0.124-1.998-0.771-4.106,0.648-5.962c2.08,0.012,1.879,1.722,2.471,3.023
	c0.777,1.709,1.554,3.684,3.85,4.067C502.04,192.431,502.021,192.773,502,193.116z"/>
<path fill-rule="evenodd" clip-rule="evenodd" fill="#B8B7A1" d="M507.191,189.93c1.255,0.183,1.776,1.071,2.081,2.165
	c-0.801,3.085-2.84,0.662-4.266,0.959c-0.343-0.332-0.685-0.664-1.026-0.996C505.051,191.349,506.121,190.639,507.191,189.93z"/>
<path fill-rule="evenodd" clip-rule="evenodd" fill="#B8B7A1" d="M525.046,198.027c-0.127,1.911-1.047,2.989-3.062,2.921
	C522.117,199.043,523.14,198.072,525.046,198.027z"/>
<path fill-rule="evenodd" clip-rule="evenodd" fill="#918B78" d="M503.98,192.058c0.342,0.332,0.684,0.664,1.026,0.995
	c-0.029,0.427-0.059,0.854-0.087,1.281c-0.98-0.389-2.27-0.04-2.92-1.219c0.021-0.342,0.04-0.685,0.061-1.026
	C502.701,192.079,503.341,192.069,503.98,192.058z"/>
<path fill-rule="evenodd" clip-rule="evenodd" fill="#B8B7A1" d="M506.229,185.863c0.22,0.376,0.438,0.752,0.657,1.127
	C506.667,186.614,506.448,186.238,506.229,185.863z"/>
<path fill-rule="evenodd" clip-rule="evenodd" fill="#7E7362" d="M509.984,165.053c1.869,0.362,4.26,1.285,4.028,2.902
	c-0.471,3.295-4.095,1.681-6.172,2.719c-1.309,0.653-2.731-0.66-2.599-2.131C505.488,165.813,507.943,165.633,509.984,165.053z"/>
<path fill-rule="evenodd" clip-rule="evenodd" fill="#7E7362" d="M517.033,167.993c-0.014,0.325-0.028,0.649-0.044,0.973
	c-0.115-0.237-0.253-0.467-0.324-0.716C516.651,168.204,516.903,168.081,517.033,167.993z"/>
<path fill-rule="evenodd" clip-rule="evenodd" fill="#9D9883" d="M478.956,152.862c-0.638,0.016-1.275,0.031-1.914,0.047
	c0.542-2.227,2.135-4.876,1.439-6.605c-2.496-6.2,0.577-12.302-0.414-18.404c-0.43-2.651,0.309-5.387,2.102-7.421
	c2.187-2.48,3.076-5.399,3.831-8.45c0,0,0.027-0.028,0.028-0.028c1.319-0.33,2.64-0.66,3.959-0.989
	c0.685,4.785-3.81,7.248-5.152,11.269c-1.322,3.959-2.259,7.546-1.995,11.776c0.35,5.618-1.089,11.294,0.149,16.943
	C479.777,151.037,479.076,151.632,478.956,152.862z"/>
<path fill-rule="evenodd" clip-rule="evenodd" fill="#9D9883" d="M485.995,155.007c-1.847,0.414-2.841-0.927-3.994-1.941
	c0.001-0.353,0.001-0.704,0.001-1.056C484.158,151.909,485.844,152.436,485.995,155.007z"/>
<path fill-rule="evenodd" clip-rule="evenodd" fill="#918B78" d="M482.002,152.009c0,0.352,0,0.704-0.001,1.056
	c-1.116,1.478-2.05,0.179-3.044-0.202c0.119-1.231,0.82-1.826,2.032-1.863C481.327,151.336,481.664,151.673,482.002,152.009z"/>
<path fill-rule="evenodd" clip-rule="evenodd" fill="#9D9883" d="M488.015,110.988c0.56-1.314,1.542-1.979,2.982-1.938
	C490.859,111.014,489.444,111.012,488.015,110.988z"/>
<path fill-rule="evenodd" clip-rule="evenodd" fill="#918B78" d="M501.951,112.015c0.376,0.002,0.752,0.004,1.129,0.007
	C502.701,112.628,502.324,112.665,501.951,112.015z"/>
<path fill-rule="evenodd" clip-rule="evenodd" fill="#98927F" d="M486.027,174.972c-0.794-3.641,2.272-7.65-1.056-11.048
	c0.002-0.621,0.004-1.243,0.007-1.864c1.62-0.886,0.42-3.173,2.02-4.07c0.976,0.011,1.951,0.023,2.926,0.035
	c0.031,0.278,0.049,0.557,0.053,0.838c-2.335,0.521-1.828,1.944-0.782,3.132c1.503,1.708,2.438,0.767,2.979-0.966
	c0.947,0.77,0.802,1.859,0.845,2.894c-1.815,3.301-3.838,6.502-4.882,10.172C487.617,174.827,486.865,175.001,486.027,174.972z"/>
<path fill-rule="evenodd" clip-rule="evenodd" fill="#675E4D" d="M486.027,174.972c0.838,0.029,1.59-0.145,2.108-0.879
	c1.684-0.354,3.063,0.678,4.596,1.016c0.009,0.639,0.019,1.277,0.026,1.917c-0.323,0.348-0.645,0.694-0.969,1.042
	c-3.337-0.275-6.124,1.093-8.758,2.919C481.098,177.521,482.721,175.827,486.027,174.972z"/>
<path fill-rule="evenodd" clip-rule="evenodd" fill="#7E7362" d="M492.731,175.109c-1.533-0.338-2.912-1.37-4.596-1.016
	c1.045-3.669,3.067-6.87,4.883-10.171C495.491,167.716,492.289,171.366,492.731,175.109z"/>
<path fill-rule="evenodd" clip-rule="evenodd" fill="#B8B7A1" d="M492.174,161.028c-0.542,1.733-1.477,2.674-2.979,0.966
	c-1.046-1.188-1.553-2.61,0.782-3.132C491.234,159.051,491.955,159.785,492.174,161.028z"/>
<path fill-rule="evenodd" clip-rule="evenodd" fill="#604F3B" d="M455.26,245.802c-1.239-3.285-5.005-5.002-5.449-8.781
	c1.053,0.66,2.108,1.319,3.162,1.979c2.678,2.331,5.356,4.661,8.033,6.991c0.801,1.796,2.25,3.36,1.984,5.539
	c-0.616-0.215-1.232-0.431-1.849-0.647C459.182,249.188,457.221,247.495,455.26,245.802z"/>
<path fill-rule="evenodd" clip-rule="evenodd" fill="#604F3B" d="M464.995,253.146c-0.31-0.063-0.617-0.133-0.925-0.208
	c-0.154-0.315-0.31-0.629-0.466-0.944C464.067,252.378,464.531,252.762,464.995,253.146z"/>
<path fill-rule="evenodd" clip-rule="evenodd" fill="#A39E87" d="M480.972,183.001c-0.353,0.638-0.706,1.277-1.058,1.916
	c-0.958,0.036-1.917,0.07-2.877,0.105c0.674-2.732,1.549-5.472,0.695-8.304c-0.744-2.473-1.854-4.086-5.029-2.845
	c-3.704,1.448-6.199,5.312-5.313,8.88c1.309,5.276,4.954,4.114,8.54,3.221c-1.232,3.376-4.961,4.122-7.001,6.647
	c-0.965,0.475-1.929,0.949-2.893,1.424c-2.37-0.398-2.019-2.249-2.028-3.865c-0.023-3.973,0.146-7.955-0.052-11.918
	c-0.175-3.501,0.359-5.938,4.73-5.296c1.069,0.157,2.864,0.27,2.926-1.11c0.164-3.643,3.445-3.428,5.375-4.868
	c3.01-0.198,4.524,0.111,4.335,4.217C481.145,175.091,478.4,179.046,480.972,183.001z"/>
<path fill-rule="evenodd" clip-rule="evenodd" fill="#918B78" d="M484,112.029c-0.755,3.05-1.645,5.97-3.831,8.45
	c-1.793,2.034-2.531,4.77-2.102,7.421c0.991,6.103-2.082,12.204,0.414,18.404c0.695,1.729-0.897,4.379-1.439,6.605
	c-1.154,0.118-2.325,0.154-3.46,0.375c-1.381,0.269-3.16,1.601-3.938-0.209c-0.726-1.689,1.873-1.537,2.398-2.475
	c0.937-1.672,1.739-3.629,1.855-5.512c0.369-5.997,1.836-11.932,1.114-17.992c-0.358-3.002,0.338-5.564,2.866-7.508
	c1.194-0.918,1.984-2.129,2.18-3.771C480.323,113.589,481.69,112.256,484,112.029z"/>
<path fill-rule="evenodd" clip-rule="evenodd" fill="#918B78" d="M476.987,166.987c-1.93,1.44-5.211,1.225-5.375,4.868
	c-0.062,1.38-1.856,1.268-2.926,1.11c-4.371-0.642-4.905,1.795-4.73,5.296c0.198,3.964,0.028,7.945,0.052,11.918
	c0.01,1.616-0.342,3.467,2.028,3.865c0.087,1.708-0.283,3.186-2.005,3.984c-3.028-1.765-3.805-4.618-3.572-7.817
	c0.375-5.168,1.721-10.282,0.712-15.522c-0.299-1.555,0.337-2.719,2.059-2.591c3.57,0.265,4.843-2.094,5.872-4.831
	c1.956-0.357,4.097,0.085,5.809-1.338C475.603,166.282,476.295,166.635,476.987,166.987z"/>
<path fill-rule="evenodd" clip-rule="evenodd" fill="#A39E87" d="M484.979,162.06c-0.003,0.622-0.005,1.244-0.007,1.864
	c-3.55-0.546-7.112-1.017-10.64-1.678c-1.277-0.24-3.437,0.129-3.093-2.189c0.315-2.125,2.207-2.208,3.889-2.086
	C478.849,158.239,482.117,159.679,484.979,162.06z"/>
<path fill-rule="evenodd" clip-rule="evenodd" fill="#604F3B" d="M474.91,165.929c-1.712,1.423-3.853,0.981-5.809,1.338
	c-0.162-0.017-0.324-0.04-0.487-0.054c-2.136-0.184-4.688,3.824-5.817,0.962c-1.154-2.922,3.012-3.662,5.228-4.548
	C470.664,162.573,473.429,162.742,474.91,165.929z"/>
<path fill-rule="evenodd" clip-rule="evenodd" fill="#7E7362" d="M477.037,185.022c0.96-0.035,1.919-0.069,2.877-0.105
	c-2.68,3.282-4.086,7.982-9.398,8.34c-0.723,0.049-1.244,0.061-1.587-0.633c2.04-2.528,5.769-3.274,7.002-6.65
	C476.3,185.657,476.669,185.339,477.037,185.022z"/>
<path fill-rule="evenodd" clip-rule="evenodd" fill="#675E4D" d="M491.904,182.976c0.005,0.681,0.011,1.363,0.016,2.044
	c-0.708-0.156-1.649-0.205-1.417-1.22C490.585,183.438,491.415,183.246,491.904,182.976z"/>
<path fill-rule="evenodd" clip-rule="evenodd" fill="#463222" d="M483.996,236.995c0.075-0.129,0.151-0.258,0.227-0.387
	c-0.072,0.132-0.146,0.264-0.218,0.396L483.996,236.995z"/>
<path fill-rule="evenodd" clip-rule="evenodd" fill="#604F3B" d="M507.063,225.065c-0.025,0.639-0.052,1.277-0.078,1.916
	c-4.92-1.562-9.789-2.403-15.055-1.258c-3.13,0.681-5.705-1.005-5.965-4.765c0.345-0.686,0.688-1.373,1.032-2.058
	c0.728-0.069,1.455-0.139,2.183-0.208c1.712,1.723,2.749,0.279,3.858-0.822c0.938,0.16,1.877,0.321,2.816,0.479
	c0.235,2.2,0.899,3.517,3.164,1.531c0.99,0.033,1.98,0.066,2.971,0.099C506.796,218.566,507.887,220.861,507.063,225.065z"/>
<path fill-rule="evenodd" clip-rule="evenodd" fill="#7E7362" d="M486.997,218.899c-0.344,0.686-0.688,1.373-1.032,2.059
	c-1.686,0.637-3.283-1.626-4.994-0.152c-0.357,0.045-0.715,0.089-1.071,0.132c-3.325-1.287-6.796-7.135-5.901-9.942
	c1.821,0.815,2.776,3.028,5.042,3.125c1.148,3.877,3.58,4.526,6.967,2.763c0.362,0.022,0.724,0.044,1.085,0.065
	C487.061,217.599,487.028,218.249,486.997,218.899z"/>
<path fill-rule="evenodd" clip-rule="evenodd" fill="#604F3B" d="M479.899,220.938c0.356-0.043,0.714-0.086,1.071-0.132
	C480.718,221.681,480.347,221.616,479.899,220.938z"/>
<path fill-rule="evenodd" clip-rule="evenodd" fill="#918B78" d="M486.007,216.882c-3.387,1.764-5.818,1.115-6.967-2.762
	c1.57-0.989,2.476-2.111,0.806-3.799c-0.804-0.812-0.938-1.635,0.081-2.401c0.839,0.117,1.662,0.268,2.131,1.101
	c0.503,1.308,1.441,1.981,2.857,1.962l0.099,0.108C484.629,213.145,485.66,214.955,486.007,216.882z"/>
<path fill-rule="evenodd" clip-rule="evenodd" fill="#A39E87" d="M495.092,190.96c1.771,0.13,2.695,1.142,2.961,2.84
	c-0.676,0.124-1.352,0.248-2.026,0.374C495.715,193.104,495.403,192.032,495.092,190.96z"/>
<path fill-rule="evenodd" clip-rule="evenodd" fill="#7E7362" d="M504.92,194.334c0.028-0.427,0.058-0.854,0.087-1.281
	c1.426-0.296,3.465,2.127,4.266-0.958c2.22-1.057,3.683-0.417,4.643,1.854c1.115,2.636,1.002,5.438,1.362,8.18
	c0.002,0.001-0.194-0.134-0.194-0.134c-1.525,1.082-1.206,2.667-0.892,4.07c0.294,1.318-0.104,1.848-1.308,2.035
	c-3.282-1.722-5.007-6.458-9.879-5.103c-0.105-2.061-1.604-2.007-3.074-2.062c-1.533-0.058-3.279,0.402-4.139-1.518
	c1.766-0.275,3.58-0.955,5.284-0.744C504.77,199.13,505.224,197.177,504.92,194.334z"/>
<path fill-rule="evenodd" clip-rule="evenodd" fill="#A39E87" d="M495.792,199.417c0.859,1.92,2.605,1.46,4.139,1.518
	c1.471,0.055,2.969,0.001,3.074,2.062c-0.361,0.34-0.722,0.681-1.082,1.021c-3.021-0.08-6.043-0.159-9.063-0.239
	c0.44-1.548-0.998-3.15,0.135-4.678C493.927,199.207,494.859,199.312,495.792,199.417z"/>
<path fill-rule="evenodd" clip-rule="evenodd" fill="#C3C1AA" d="M492.859,203.779c3.021,0.08,6.042,0.159,9.063,0.239
	c-0.261,1.293-0.521,2.586-0.78,3.878c5.699,5.361,5.236,7.528-2.193,10.244c-1.031,0.071-2.063,0.141-3.096,0.212
	c-0.938-0.161-1.877-0.321-2.815-0.481c-2.863-2.036-4.827-5.137-8.024-6.779l-0.099-0.108c0.066-0.283,0.129-0.567,0.187-0.853
	c1.336-0.201,2.919,0.441,3.856-1.125c-0.012-1.344-0.022-2.688-0.034-4.031l0.022-0.053c0.461-0.045,0.923-0.09,1.384-0.136
	c0.251-0.018,0.479,0.043,0.687,0.185c-0.331,1.676-0.662,3.353-0.993,5.028c1.02,4.458,3.712,5.333,8.562,2.6
	c-2.133-1.265-5.341,0.408-6.601-2.565c-0.045-1.755-0.089-3.51-0.133-5.265C492.188,204.438,492.523,204.109,492.859,203.779z"/>
<path fill-rule="evenodd" clip-rule="evenodd" fill="#9D9883" d="M488.958,209.005c-0.938,1.566-2.521,0.924-3.857,1.124
	c-0.05-0.381-0.099-0.76-0.148-1.139c-0.801-1.484-2.393-2.688-1.672-4.708c1.89-0.101,3.777-0.205,5.665-0.308
	c0.004,0.316,0.004,0.632,0.001,0.948c0,0-0.022,0.053-0.021,0.053C487.208,206.332,485.414,207.69,488.958,209.005z"/>
<path fill-rule="evenodd" clip-rule="evenodd" fill="#B8B7A1" d="M490.023,209.999c0.331-1.676,0.662-3.353,0.993-5.028
	c0.285-0.04,0.564-0.105,0.836-0.201c0.043,1.753,0.087,3.508,0.132,5.263C491.33,210.021,490.677,210.011,490.023,209.999z"/>
<path fill-rule="evenodd" clip-rule="evenodd" fill="#B8B7A1" d="M488.946,204.921c0.003-0.316,0.003-0.632-0.001-0.948
	c0.46,0.271,0.921,0.542,1.383,0.813C489.869,204.831,489.407,204.876,488.946,204.921z"/>
<path fill-rule="evenodd" clip-rule="evenodd" fill="#A39E87" d="M484.952,208.99c0.05,0.379,0.099,0.758,0.148,1.139
	c-0.057,0.286-0.119,0.57-0.186,0.854c-1.416,0.02-2.354-0.654-2.857-1.962C483.023,209.01,483.987,209,484.952,208.99z"/>
<path fill-rule="evenodd" clip-rule="evenodd" fill="#B8B7A1" d="M484.998,250.018c-6.044,0.639-3.204,4.659-2.931,7.699
	c-1.01,0.074-2.021,0.15-3.031,0.226c-2.804-3.489-1.396-6.978-0.001-10.462c2.052-0.117,4.221-1.081,5.987,0.844
	C485.015,248.891,485.006,249.455,484.998,250.018z"/>
<path fill-rule="evenodd" clip-rule="evenodd" fill="#463222" d="M501.143,207.896c0.26-1.293,0.52-2.586,0.78-3.879
	c0.36-0.34,0.721-0.681,1.082-1.021c4.872-1.355,6.597,3.381,9.88,5.102c0.031,0.96,0.063,1.922,0.094,2.883
	c-2.362,0.991-2.024,3.056-1.989,5.001c-1.063-0.331-2.126-0.661-3.188-0.992c-0.168-2.694,1.093-5.931-2.741-7.236
	c-0.403-0.436-0.756-0.372-1.066,0.107C503.043,207.873,502.093,207.885,501.143,207.896z"/>
<path fill-rule="evenodd" clip-rule="evenodd" fill="#675E4D" d="M512.979,210.981c-0.031-0.961-0.063-1.923-0.094-2.883
	c1.202-0.187,1.601-0.716,1.307-2.034c-0.314-1.402-0.634-2.988,0.892-4.07c0.363,0.586,0.727,1.173,1.09,1.758
	c1.974,3.301,0.815,6.861,0.815,10.316c0,2.101-0.032,4.079,2.897,3.981c-1.534,1.793,0.208,4.987-2.659,6.209
	c-0.34-1.998,0.127-4.606-3.26-4.281c-0.008-0.329,0.001-0.657,0.027-0.984c0.074-0.128,0.148-0.257,0.223-0.386
	c-0.07,0.132-0.142,0.264-0.213,0.396c-4.278-0.056-1.817-1.432-0.589-2.748C515.146,214.406,518.783,212.26,512.979,210.981z"/>
<path fill-rule="evenodd" clip-rule="evenodd" fill="#604F3B" d="M513.967,219.979c3.387-0.325,2.92,2.283,3.26,4.281
	c-0.038,3.098-1.788,5.18-4.106,6.924c-3.142,0.311-3.979-1.089-3.041-3.965C510.945,224.563,512.47,222.284,513.967,219.979z"/>
<path fill-rule="evenodd" clip-rule="evenodd" fill="#675E4D" d="M507.801,214.99c1.063,0.331,2.126,0.661,3.188,0.992
	c-2.107,2.681-0.603,6.926-3.927,9.082c0.824-4.204-0.267-6.498-5.073-5.084C503.926,218.317,505.863,216.653,507.801,214.99z"/>
<path fill-rule="evenodd" clip-rule="evenodd" fill="#675E4D" d="M497.979,234.98c1.698-0.36,3.783-4.393,4.928,0.341
	c0.466,1.924,0.202,4.436-2.53,4.503c-3.66,0.09-1.879-3.068-2.404-4.847L497.979,234.98z"/>
<path fill-rule="evenodd" clip-rule="evenodd" fill="#DFE4E6" d="M511.009,282.994c2.821,1.338,2.821,2.675-0.001,4.011
	C511.008,285.668,511.008,284.331,511.009,282.994z"/>
<path fill-rule="evenodd" clip-rule="evenodd" fill="#B8B7A1" d="M477.037,185.022c-0.368,0.317-0.737,0.635-1.106,0.952
	c-3.587,0.893-7.232,2.055-8.541-3.221c-0.886-3.569,1.609-7.432,5.313-8.88c3.176-1.241,4.285,0.373,5.029,2.845
	C478.586,179.55,477.711,182.29,477.037,185.022z"/>
<path fill-rule="evenodd" clip-rule="evenodd" fill="#918B78" d="M507.801,214.99c-1.938,1.663-3.875,3.327-5.812,4.99
	c-0.99-0.033-1.98-0.066-2.972-0.099c-0.022-0.58-0.046-1.161-0.068-1.742c7.43-2.715,7.893-4.882,2.193-10.244
	c0.95-0.011,1.9-0.022,2.85-0.033c0.355-0.036,0.711-0.072,1.067-0.108C508.894,209.06,507.633,212.296,507.801,214.99z"/>
<path fill-rule="evenodd" clip-rule="evenodd" fill="#A39E87" d="M485.014,211.091c3.197,1.643,5.161,4.743,8.024,6.779
	c-1.109,1.1-2.146,2.544-3.86,0.825c0.837-2.406-1.135-1.469-2.086-1.747c-0.361-0.021-0.723-0.042-1.085-0.065
	C485.66,214.955,484.629,213.145,485.014,211.091z"/>
<path fill-rule="evenodd" clip-rule="evenodd" fill="#7E7362" d="M498.949,218.139c0.022,0.581,0.046,1.162,0.068,1.742
	c-2.264,1.984-2.928,0.667-3.163-1.532C496.886,218.28,497.918,218.21,498.949,218.139z"/>
<path fill-rule="evenodd" clip-rule="evenodd" fill="#918B78" d="M487.092,216.948c0.951,0.277,2.923-0.66,2.086,1.747
	c-0.726,0.066-1.453,0.136-2.181,0.205C487.028,218.249,487.061,217.599,487.092,216.948z"/>
<path fill-rule="evenodd" clip-rule="evenodd" fill="#D0CDB7" d="M490.023,209.999c0.653,0.012,1.307,0.022,1.961,0.034
	c1.26,2.974,4.468,1.301,6.601,2.565C493.735,215.332,491.043,214.457,490.023,209.999z"/>
<path fill-rule="evenodd" clip-rule="evenodd" fill="#B8B7A1" d="M488.958,209.005c-3.544-1.314-1.75-2.673-0.033-4.031
	C488.936,206.317,488.946,207.661,488.958,209.005z"/>
<path fill-rule="evenodd" clip-rule="evenodd" fill="#675E4D" d="M505.06,207.754c-0.356,0.036-0.712,0.072-1.067,0.108
	C504.304,207.382,504.656,207.318,505.06,207.754z"/>
<path fill-rule="evenodd" clip-rule="evenodd" fill="#7E7362" d="M514.004,219.005c0.071-0.132,0.143-0.264,0.213-0.396
	c-0.074,0.129-0.148,0.257-0.223,0.386L514.004,219.005z"/>
</svg>
