<?xml version="1.0" encoding="utf-8"?>
<!-- Generator: Adobe Illustrator 16.0.0, SVG Export Plug-In . SVG Version: 6.00 Build 0)  -->
<!DOCTYPE svg PUBLIC "-//W3C//DTD SVG 1.1//EN" "http://www.w3.org/Graphics/SVG/1.1/DTD/svg11.dtd">
<svg version="1.1" id="Layer_1" xmlns="http://www.w3.org/2000/svg" xmlns:xlink="http://www.w3.org/1999/xlink" x="0px" y="0px"
	 width="425.2px" height="141.73px" viewBox="0 0 425.2 141.73" enable-background="new 0 0 425.2 141.73" xml:space="preserve">
<pattern  width="65.998" height="65.998" patternUnits="userSpaceOnUse" id="Stars_3D_Color" viewBox="0 -65.998 65.998 65.998" overflow="visible">
	<g>
		<polygon fill="none" points="0,0 65.998,0 65.998,-65.998 0,-65.998 		"/>
		<g>
			<polygon fill="none" points="0,0 65.998,0 65.998,-65.998 0,-65.998 			"/>
			<polygon fill="#630460" points="65.998,-65.998 65.998,0 0,0 0,-65.998 			"/>
			<polygon fill="#D8CEE2" points="32.999,-49.498 28.167,-37.832 16.499,-32.999 32.999,-32.999 			"/>
			<polygon fill="#D8CEE2" points="65.998,-49.498 61.166,-37.832 49.499,-32.999 65.998,-32.999 			"/>
			<polygon fill="#FFFFFF" points="32.999,-16.499 28.167,-4.833 16.499,0 32.999,0 			"/>
			<polygon fill="#FFFFFF" points="65.998,-16.499 61.166,-4.833 49.499,0 65.998,0 			"/>
			<polygon fill="#D8CEE2" points="16.499,-32.998 11.667,-21.332 0,-16.499 16.499,-16.499 			"/>
			<polygon fill="#D8CEE2" points="49.499,-32.998 44.667,-21.332 32.999,-16.499 49.499,-16.499 			"/>
			<polygon fill="#D8CEE2" points="49.499,-65.995 44.667,-54.33 32.999,-49.497 49.499,-49.497 			"/>
			<polygon fill="#D8CEE2" points="16.499,-65.995 11.667,-54.33 0,-49.497 16.499,-49.497 			"/>
			<polygon fill="#B19ACA" points="32.999,-49.499 28.167,-61.166 16.499,-65.998 32.999,-65.998 			"/>
			<polygon fill="#B19ACA" points="65.998,-49.499 61.166,-61.166 49.499,-65.998 65.998,-65.998 			"/>
			<polygon fill="#B19ACA" points="32.999,-16.5 28.167,-28.167 16.499,-32.999 32.999,-32.999 			"/>
			<polygon fill="#B19ACA" points="65.998,-16.5 61.166,-28.167 49.499,-32.999 65.998,-32.999 			"/>
			<polygon fill="#B19ACA" points="16.499,0 11.667,-11.667 0,-16.499 16.499,-16.499 			"/>
			<polygon fill="#B19ACA" points="49.499,0 44.667,-11.667 32.999,-16.499 49.499,-16.499 			"/>
			<polygon fill="#B19ACA" points="49.499,-32.998 44.667,-44.664 32.999,-49.497 49.499,-49.497 			"/>
			<polygon fill="#B19ACA" points="16.499,-32.998 11.667,-44.664 0,-49.497 16.499,-49.497 			"/>
			<polygon fill="#B28ABF" points="16.499,-65.998 4.832,-61.166 0,-49.499 0,-65.998 			"/>
			<polygon fill="#B28ABF" points="49.499,-65.998 37.831,-61.166 32.999,-49.499 32.999,-65.998 			"/>
			<polygon fill="#B28ABF" points="16.499,-32.999 4.832,-28.167 0,-16.5 0,-32.999 			"/>
			<polygon fill="#9E76B4" points="49.499,-32.999 37.831,-28.167 32.999,-16.5 32.999,-32.999 			"/>
			<polygon fill="#9E76B4" points="32.999,-16.499 21.332,-11.667 16.499,0 16.499,-16.499 			"/>
			<polygon fill="#9E76B4" points="65.998,-16.499 54.331,-11.667 49.499,0 49.499,-16.499 			"/>
			<polygon fill="#9E76B4" points="65.998,-49.497 54.331,-44.664 49.499,-32.998 49.499,-49.497 			"/>
			<polygon fill="#9E76B4" points="32.999,-49.497 21.332,-44.664 16.499,-32.998 16.499,-49.497 			"/>
			<polygon fill="#83428F" points="0,-49.498 4.832,-37.832 16.499,-32.999 0,-32.999 			"/>
			<polygon fill="#83428F" points="32.999,-49.498 37.831,-37.832 49.499,-32.999 32.999,-32.999 			"/>
			<polygon fill="#83428F" points="0,-16.499 4.832,-4.833 16.499,0 0,0 			"/>
			<polygon fill="#83428F" points="32.999,-16.499 37.831,-4.833 49.499,0 32.999,0 			"/>
			<polygon fill="#83428F" points="16.499,-32.998 21.332,-21.332 32.999,-16.499 16.499,-16.499 			"/>
			<polygon fill="#83428F" points="49.499,-32.998 54.331,-21.332 65.998,-16.499 49.499,-16.499 			"/>
			<polygon fill="#83428F" points="49.499,-65.995 54.331,-54.33 65.998,-49.497 49.499,-49.497 			"/>
			<polygon fill="#83428F" points="16.499,-65.995 21.332,-54.33 32.999,-49.497 16.499,-49.497 			"/>
		</g>
	</g>
</pattern>
<linearGradient id="SVGID_1_" gradientUnits="userSpaceOnUse" x1="2799.8398" y1="-4743.9541" x2="2832.4497" y2="-4796.3872" gradientTransform="matrix(0.2498 0 0 -0.2498 -550.6263 -1132.7305)">
	<stop  offset="0" style="stop-color:#C3D8E2"/>
	<stop  offset="1" style="stop-color:#FFFFFF"/>
</linearGradient>
<polygon fill="url(#SVGID_1_)" points="146.585,52.41 156.928,52.927 155.876,66.499 148.822,64.088 152.569,58.164 144.119,57.319 
	"/>
<linearGradient id="SVGID_2_" gradientUnits="userSpaceOnUse" x1="2774.958" y1="-4761.6113" x2="2774.958" y2="-4774.3521" gradientTransform="matrix(0.2498 0 0 -0.2498 -550.6263 -1132.7305)">
	<stop  offset="0" style="stop-color:#93B8C8"/>
	<stop  offset="1" style="stop-color:#FFFFFF"/>
</linearGradient>
<polygon fill="url(#SVGID_2_)" points="152.569,58.164 140.009,56.432 132.548,57.439 132.562,57.446 144.568,59.575 "/>
<linearGradient id="SVGID_3_" gradientUnits="userSpaceOnUse" x1="2791.6885" y1="-4720.2402" x2="2791.6885" y2="-4699.5132" gradientTransform="matrix(0.2498 0 0 -0.2498 -550.6263 -1132.7305)">
	<stop  offset="0" style="stop-color:#93B8C8"/>
	<stop  offset="1" style="stop-color:#FFFFFF"/>
</linearGradient>
<polygon fill="url(#SVGID_3_)" points="161.987,44.864 144.565,46.108 131.488,43.898 144.565,41.006 "/>
<linearGradient id="SVGID_4_" gradientUnits="userSpaceOnUse" x1="2775.4297" y1="-4782.9141" x2="2775.4297" y2="-4823.7148" gradientTransform="matrix(0.2498 0 0 -0.2498 -550.6263 -1132.7305)">
	<stop  offset="0" style="stop-color:#93B8C8"/>
	<stop  offset="1" style="stop-color:#FFFFFF"/>
</linearGradient>
<polygon fill="url(#SVGID_4_)" points="155.876,66.499 148.394,63.944 144.61,65.817 144.565,65.85 144.496,65.817 141.908,61.75 
	129.477,64.638 129.48,64.638 144.565,71.941 "/>
<linearGradient id="SVGID_5_" gradientUnits="userSpaceOnUse" x1="2777.2861" y1="-4746.3916" x2="2725.9299" y2="-4733.5659" gradientTransform="matrix(0.2498 0 0 -0.2498 -550.6263 -1132.7305)">
	<stop  offset="0" style="stop-color:#C3D8E2"/>
	<stop  offset="1" style="stop-color:#FFFFFF"/>
</linearGradient>
<polygon fill="url(#SVGID_5_)" points="140.009,56.432 144.565,46.108 131.488,43.898 132.548,57.439 "/>
<linearGradient id="SVGID_6_" gradientUnits="userSpaceOnUse" x1="2712.1318" y1="-4760.7168" x2="2783.7939" y2="-4760.7168" gradientTransform="matrix(0.2498 0 0 -0.2498 -550.6263 -1132.7305)">
	<stop  offset="0" style="stop-color:#2C5C85"/>
	<stop  offset="1" style="stop-color:#002957"/>
</linearGradient>
<path fill="url(#SVGID_6_)" d="M144.469,72.157l0.099,6.131l-14.62-9.72l-0.471-3.949L144.469,72.157L144.469,72.157z
	 M126.667,40.911l2.345,19.758l15.484,5.148l-0.105-5.862l-11.842-2.516l-1.068-13.542l12.936-3.16l0.129-6.033L126.667,40.911
	L126.667,40.911z M144.417,47.169l-0.069,6.2l-8.033-0.295l-0.233-5.083L144.417,47.169z"/>
<linearGradient id="SVGID_7_" gradientUnits="userSpaceOnUse" x1="2783.7793" y1="-4760.7168" x2="2855.4668" y2="-4760.7168" gradientTransform="matrix(0.2498 0 0 -0.2498 -550.6263 -1132.7305)">
	<stop  offset="0" style="stop-color:#136296"/>
	<stop  offset="1" style="stop-color:#004F80"/>
</linearGradient>
<path fill="url(#SVGID_7_)" d="M159.184,68.568l-14.61,9.72l0.095-6.131l11.213-5.659l1.052-13.572l-12.163,0.442l-0.091-6.206
	l16.85,1.645L159.184,68.568L159.184,68.568z M161.987,44.864l0.478-3.953l-17.907-6.206l0.111,6.026L161.987,44.864L161.987,44.864
	z M152.336,63.256l0.233-5.092l-7.863,1.791l-0.096,5.862L152.336,63.256z"/>
<g>
	<g>
		<pattern  id="SVGID_8_" xlink:href="#Stars_3D_Color" patternTransform="matrix(1 0 0 -1 -263.9922 -15718.2168)">
		</pattern>
		<path fill="url(#SVGID_8_)" d="M181.726,57.512h-11.21v10.382h12.488v3.117h-16.211V42.194h15.572v3.128h-11.849v9.104h11.21
			V57.512z"/>
		<pattern  id="SVGID_9_" xlink:href="#Stars_3D_Color" patternTransform="matrix(1 0 0 -1 -263.9922 -15718.2168)">
		</pattern>
		<path fill="url(#SVGID_9_)" d="M183.894,71.902h-17.996V41.3h17.357v4.903h-11.849v7.329h11.216v4.867h-11.216v8.604h12.487
			V71.902z M167.683,70.127h14.436v-1.336h-12.494V56.618h11.204V55.32h-11.204V44.415h11.849v-1.327h-13.791V70.127z"/>
	</g>
	<g>
		<pattern  id="SVGID_10_" xlink:href="#Stars_3D_Color" patternTransform="matrix(1 0 0 -1 -263.9922 -15718.2168)">
		</pattern>
		<path fill="url(#SVGID_10_)" d="M187.853,42.182h3.724v25.712h12.313v3.117h-16.037V42.182z"/>
		<pattern  id="SVGID_11_" xlink:href="#Stars_3D_Color" patternTransform="matrix(1 0 0 -1 -263.9922 -15718.2168)">
		</pattern>
		<path fill="url(#SVGID_11_)" d="M204.781,71.902h-17.819V41.3h5.505v25.703h12.313V71.902z M188.744,70.127H203v-1.336h-12.313
			V43.082h-1.942V70.127z"/>
	</g>
	<g>
		<pattern  id="SVGID_12_" xlink:href="#Stars_3D_Color" patternTransform="matrix(1 0 0 -1 -263.9922 -15718.2168)">
		</pattern>
		<path fill="url(#SVGID_12_)" d="M212.716,61.953l-2.997,9.058h-3.848l9.79-28.816h4.492l9.836,28.816h-3.973l-3.078-9.058H212.716
			z M222.158,59.048l-2.823-8.306c-0.646-1.873-1.054-3.583-1.486-5.259h-0.085c-0.437,1.716-0.904,3.465-1.464,5.216l-2.813,8.349
			H222.158z"/>
		<pattern  id="SVGID_13_" xlink:href="#Stars_3D_Color" patternTransform="matrix(1 0 0 -1 -263.9922 -15718.2168)">
		</pattern>
		<path fill="url(#SVGID_13_)" d="M231.227,71.902h-5.855l-3.071-9.058h-8.938l-2.989,9.058h-5.748L215.016,41.3h5.786l0.193,0.606
			L231.227,71.902z M226.646,70.127h2.095l-9.222-27.039h-3.213l-9.189,27.039h1.964l2.997-9.072h11.5L226.646,70.127z
			 M223.419,59.935h-11.18l3.225-9.517c0.485-1.539,0.947-3.229,1.435-5.152l0.164-0.677h1.461l0.291,1.11
			c0.4,1.5,0.8,3.062,1.369,4.755L223.419,59.935z M214.728,58.154h6.199L218.5,51.03c-0.259-0.77-0.487-1.502-0.693-2.223
			c-0.217,0.746-0.442,1.474-0.662,2.167L214.728,58.154z"/>
	</g>
	<g>
		<pattern  id="SVGID_14_" xlink:href="#Stars_3D_Color" patternTransform="matrix(1 0 0 -1 -263.9922 -15718.2168)">
		</pattern>
		<path fill="url(#SVGID_14_)" d="M232.281,68.843l15.998-23.406v-0.134h-14.636v-3.121h19.47v2.27l-15.909,23.297v0.131h16.118
			v3.125h-21.041V68.843z"/>
		<pattern  id="SVGID_15_" xlink:href="#Stars_3D_Color" patternTransform="matrix(1 0 0 -1 -263.9922 -15718.2168)">
		</pattern>
		<path fill="url(#SVGID_15_)" d="M254.214,71.902h-22.826v-3.347l15.286-22.352H232.75v-4.91h21.241v3.445l-15.216,22.264h15.432
			v4.899H254.214z M233.165,70.127h19.261v-1.336h-16.112v-1.167l0.131-0.353l15.766-23.086v-1.104h-17.679v1.333h14.626v1.169
			l-0.145,0.357l-15.848,23.177V70.127z"/>
	</g>
	<g>
		<pattern  id="SVGID_16_" xlink:href="#Stars_3D_Color" patternTransform="matrix(1 0 0 -1 -263.9922 -15718.2168)">
		</pattern>
		<path fill="url(#SVGID_16_)" d="M261.628,42.182v12.065h13.952V42.182h3.752v28.829h-3.752V57.499h-13.958v13.512h-3.714V42.182
			H261.628z"/>
		<pattern  id="SVGID_17_" xlink:href="#Stars_3D_Color" patternTransform="matrix(1 0 0 -1 -263.9922 -15718.2168)">
		</pattern>
		<path fill="url(#SVGID_17_)" d="M280.237,71.902h-5.555V58.399H262.52v13.503h-5.502V41.3h5.502v12.069h12.163V41.3h5.555V71.902z
			 M276.464,70.127h1.985V43.088h-1.985V55.14h-15.72V43.088h-1.938v27.039h1.938V56.618h15.72V70.127z"/>
	</g>
	<g>
		<pattern  id="SVGID_18_" xlink:href="#Stars_3D_Color" patternTransform="matrix(1 0 0 -1 -263.9922 -15718.2168)">
		</pattern>
		<path fill="url(#SVGID_18_)" d="M290.461,61.953l-2.987,9.058h-3.845l9.792-28.816h4.494l9.844,28.816h-3.988l-3.085-9.058
			H290.461z M299.919,59.048l-2.822-8.306c-0.643-1.873-1.068-3.583-1.487-5.259h-0.086c-0.431,1.716-0.896,3.465-1.461,5.216
			l-2.822,8.349H299.919z"/>
		<pattern  id="SVGID_19_" xlink:href="#Stars_3D_Color" patternTransform="matrix(1 0 0 -1 -263.9922 -15718.2168)">
		</pattern>
		<path fill="url(#SVGID_19_)" d="M309.004,71.902h-5.875l-3.072-9.058h-8.934l-2.993,9.058h-5.732L292.779,41.3h5.764l0.211,0.606
			L309.004,71.902z M304.412,70.127h2.084l-9.23-27.039h-3.203l-9.176,27.039h1.952l2.999-9.072h11.496L304.412,70.127z
			 M301.17,59.935h-11.161l3.223-9.517c0.59-1.887,1.067-3.734,1.435-5.152l0.163-0.677h1.474l0.165,0.667
			c0.412,1.687,0.845,3.374,1.479,5.197L301.17,59.935z M292.491,58.154h6.177l-2.41-7.124c-0.262-0.77-0.479-1.502-0.694-2.223
			c-0.189,0.697-0.407,1.431-0.654,2.167L292.491,58.154z"/>
	</g>
	<g>
		<pattern  id="SVGID_20_" xlink:href="#Stars_3D_Color" patternTransform="matrix(1 0 0 -1 -263.9922 -15718.2168)">
		</pattern>
		<path fill="url(#SVGID_20_)" d="M312.004,42.571c1.886-0.39,4.565-0.593,7.132-0.593c3.976,0,6.552,0.72,8.347,2.342
			c1.44,1.29,2.271,3.251,2.271,5.485c0,3.806-2.408,6.331-5.436,7.353v0.125c2.227,0.779,3.545,2.829,4.231,5.836
			c0.936,4.009,1.619,6.792,2.213,7.892h-3.851c-0.464-0.798-1.112-3.288-1.919-6.877c-0.851-3.982-2.396-5.482-5.783-5.604h-3.479
			v12.481h-3.727V42.571L312.004,42.571z M315.737,55.71h3.793c3.989,0,6.509-2.184,6.509-5.472c0-3.724-2.698-5.349-6.627-5.391
			c-1.802,0-3.086,0.167-3.675,0.347V55.71z"/>
		<pattern  id="SVGID_21_" xlink:href="#Stars_3D_Color" patternTransform="matrix(1 0 0 -1 -263.9922 -15718.2168)">
		</pattern>
		<path fill="url(#SVGID_21_)" d="M332.263,71.902h-5.85l-0.249-0.432c-0.489-0.839-1.061-2.831-2.037-7.14
			c-0.767-3.608-1.965-4.791-4.925-4.906h-2.587v12.478h-5.509V41.848l0.714-0.144c1.88-0.383,4.618-0.613,7.315-0.613
			c4.218,0,6.964,0.792,8.94,2.568c1.632,1.441,2.562,3.685,2.562,6.147c0,3.259-1.616,5.963-4.407,7.477
			c1.526,1.13,2.58,3.013,3.184,5.626c0.878,3.72,1.591,6.655,2.146,7.683L332.263,71.902z M327.501,70.127h1.938
			c-0.491-1.488-1.041-3.806-1.756-6.819c-0.648-2.856-1.833-4.562-3.647-5.181l-0.616-0.203v-1.271l0.616-0.344
			c3.013-1.019,4.819-3.455,4.819-6.504c0-1.958-0.719-3.71-1.964-4.814c-1.625-1.464-4.015-2.125-7.756-2.125
			c-2.259,0-4.525,0.17-6.248,0.446v26.815h1.946V57.636h4.381c3.864,0.128,5.719,1.903,6.642,6.295
			C326.198,65.313,326.949,68.732,327.501,70.127z M319.53,56.598h-4.69V44.51l0.636-0.189c0.818-0.223,2.278-0.374,3.937-0.374l0,0
			c4.781,0.048,7.519,2.341,7.519,6.285C326.924,54.04,323.95,56.598,319.53,56.598z M316.615,54.824h2.915
			c3.459,0,5.611-1.753,5.611-4.585c0-2.941-1.938-4.467-5.744-4.503c-1.217,0-2.161,0.085-2.782,0.173V54.824z"/>
	</g>
</g>
</svg>
