<?xml version="1.0" encoding="utf-8"?>
<!-- Generator: Adobe Illustrator 16.0.0, SVG Export Plug-In . SVG Version: 6.00 Build 0)  -->
<!DOCTYPE svg PUBLIC "-//W3C//DTD SVG 1.1//EN" "http://www.w3.org/Graphics/SVG/1.1/DTD/svg11.dtd">
<svg version="1.1" id="Layer_1" xmlns="http://www.w3.org/2000/svg" xmlns:xlink="http://www.w3.org/1999/xlink" x="0px" y="0px"
	 width="32px" height="8.494px" viewBox="0 0 32 8.494" enable-background="new 0 0 32 8.494" xml:space="preserve">
<pattern  x="-289.5" y="400.747" width="65.998" height="65.998" patternUnits="userSpaceOnUse" id="Stars_3D_Color" viewBox="0 -65.998 65.998 65.998" overflow="visible">
	<g>
		<polygon fill="none" points="0,0 65.998,0 65.998,-65.998 0,-65.998 		"/>
		<g>
			<polygon fill="none" points="0,0 65.998,0 65.998,-65.998 0,-65.998 			"/>
			<polygon fill="#630460" points="65.998,-65.998 65.998,0 0,0 0,-65.998 			"/>
			<polygon fill="#D8CEE2" points="32.999,-49.498 28.167,-37.832 16.499,-32.999 32.999,-32.999 			"/>
			<polygon fill="#D8CEE2" points="65.998,-49.498 61.166,-37.832 49.499,-32.999 65.998,-32.999 			"/>
			<polygon fill="#FFFFFF" points="32.999,-16.499 28.167,-4.833 16.499,0 32.999,0 			"/>
			<polygon fill="#FFFFFF" points="65.998,-16.499 61.166,-4.833 49.499,0 65.998,0 			"/>
			<polygon fill="#D8CEE2" points="16.499,-32.998 11.667,-21.332 0,-16.499 16.499,-16.499 			"/>
			<polygon fill="#D8CEE2" points="49.499,-32.998 44.667,-21.332 32.999,-16.499 49.499,-16.499 			"/>
			<polygon fill="#D8CEE2" points="49.499,-65.995 44.667,-54.33 32.999,-49.497 49.499,-49.497 			"/>
			<polygon fill="#D8CEE2" points="16.499,-65.995 11.667,-54.33 0,-49.497 16.499,-49.497 			"/>
			<polygon fill="#B19ACA" points="32.999,-49.499 28.167,-61.166 16.499,-65.998 32.999,-65.998 			"/>
			<polygon fill="#B19ACA" points="65.998,-49.499 61.166,-61.166 49.499,-65.998 65.998,-65.998 			"/>
			<polygon fill="#B19ACA" points="32.999,-16.5 28.167,-28.167 16.499,-32.999 32.999,-32.999 			"/>
			<polygon fill="#B19ACA" points="65.998,-16.5 61.166,-28.167 49.499,-32.999 65.998,-32.999 			"/>
			<polygon fill="#B19ACA" points="16.499,0 11.667,-11.667 0,-16.499 16.499,-16.499 			"/>
			<polygon fill="#B19ACA" points="49.499,0 44.667,-11.667 32.999,-16.499 49.499,-16.499 			"/>
			<polygon fill="#B19ACA" points="49.499,-32.998 44.667,-44.664 32.999,-49.497 49.499,-49.497 			"/>
			<polygon fill="#B19ACA" points="16.499,-32.998 11.667,-44.664 0,-49.497 16.499,-49.497 			"/>
			<polygon fill="#B28ABF" points="16.499,-65.998 4.832,-61.166 0,-49.499 0,-65.998 			"/>
			<polygon fill="#B28ABF" points="49.499,-65.998 37.831,-61.166 32.999,-49.499 32.999,-65.998 			"/>
			<polygon fill="#B28ABF" points="16.499,-32.999 4.832,-28.167 0,-16.5 0,-32.999 			"/>
			<polygon fill="#9E76B4" points="49.499,-32.999 37.831,-28.167 32.999,-16.5 32.999,-32.999 			"/>
			<polygon fill="#9E76B4" points="32.999,-16.499 21.332,-11.667 16.499,0 16.499,-16.499 			"/>
			<polygon fill="#9E76B4" points="65.998,-16.499 54.331,-11.667 49.499,0 49.499,-16.499 			"/>
			<polygon fill="#9E76B4" points="65.998,-49.497 54.331,-44.664 49.499,-32.998 49.499,-49.497 			"/>
			<polygon fill="#9E76B4" points="32.999,-49.497 21.332,-44.664 16.499,-32.998 16.499,-49.497 			"/>
			<polygon fill="#83428F" points="0,-49.498 4.832,-37.832 16.499,-32.999 0,-32.999 			"/>
			<polygon fill="#83428F" points="32.999,-49.498 37.831,-37.832 49.499,-32.999 32.999,-32.999 			"/>
			<polygon fill="#83428F" points="0,-16.499 4.832,-4.833 16.499,0 0,0 			"/>
			<polygon fill="#83428F" points="32.999,-16.499 37.831,-4.833 49.499,0 32.999,0 			"/>
			<polygon fill="#83428F" points="16.499,-32.998 21.332,-21.332 32.999,-16.499 16.499,-16.499 			"/>
			<polygon fill="#83428F" points="49.499,-32.998 54.331,-21.332 65.998,-16.499 49.499,-16.499 			"/>
			<polygon fill="#83428F" points="49.499,-65.995 54.331,-54.33 65.998,-49.497 49.499,-49.497 			"/>
			<polygon fill="#83428F" points="16.499,-65.995 21.332,-54.33 32.999,-49.497 16.499,-49.497 			"/>
		</g>
	</g>
</pattern>
<linearGradient id="SVGID_1_" gradientUnits="userSpaceOnUse" x1="2812.7617" y1="-4885.6724" x2="2817.624" y2="-4893.4902" gradientTransform="matrix(0.2498 0 0 -0.2498 -698.7909 -1216.7833)">
	<stop  offset="0" style="stop-color:#C3D8E2"/>
	<stop  offset="1" style="stop-color:#FFFFFF"/>
</linearGradient>
<polygon fill="url(#SVGID_1_)" points="3.511,3.673 5.053,3.75 4.896,5.773 3.844,5.414 4.403,4.531 3.143,4.405 "/>
<linearGradient id="SVGID_2_" gradientUnits="userSpaceOnUse" x1="2809.0508" y1="-4888.3086" x2="2809.0508" y2="-4890.2065" gradientTransform="matrix(0.2498 0 0 -0.2498 -698.7909 -1216.7833)">
	<stop  offset="0" style="stop-color:#93B8C8"/>
	<stop  offset="1" style="stop-color:#FFFFFF"/>
</linearGradient>
<polygon fill="url(#SVGID_2_)" points="4.403,4.531 2.53,4.272 1.418,4.423 1.42,4.424 3.21,4.741 "/>
<linearGradient id="SVGID_3_" gradientUnits="userSpaceOnUse" x1="2811.5449" y1="-4882.1362" x2="2811.5449" y2="-4879.0479" gradientTransform="matrix(0.2498 0 0 -0.2498 -698.7909 -1216.7833)">
	<stop  offset="0" style="stop-color:#93B8C8"/>
	<stop  offset="1" style="stop-color:#FFFFFF"/>
</linearGradient>
<polygon fill="url(#SVGID_3_)" points="5.807,2.548 3.209,2.733 1.26,2.404 3.209,1.973 "/>
<linearGradient id="SVGID_4_" gradientUnits="userSpaceOnUse" x1="2809.1221" y1="-4891.4824" x2="2809.1221" y2="-4897.5684" gradientTransform="matrix(0.2498 0 0 -0.2498 -698.7909 -1216.7833)">
	<stop  offset="0" style="stop-color:#93B8C8"/>
	<stop  offset="1" style="stop-color:#FFFFFF"/>
</linearGradient>
<polygon fill="url(#SVGID_4_)" points="4.896,5.773 3.78,5.393 3.216,5.672 3.209,5.677 3.199,5.672 2.813,5.065 0.96,5.496 
	0.96,5.496 3.209,6.585 "/>
<linearGradient id="SVGID_5_" gradientUnits="userSpaceOnUse" x1="2809.4023" y1="-4886.0361" x2="2801.7432" y2="-4884.1235" gradientTransform="matrix(0.2498 0 0 -0.2498 -698.7909 -1216.7833)">
	<stop  offset="0" style="stop-color:#C3D8E2"/>
	<stop  offset="1" style="stop-color:#FFFFFF"/>
</linearGradient>
<polygon fill="url(#SVGID_5_)" points="2.53,4.272 3.209,2.733 1.26,2.404 1.418,4.423 "/>
<linearGradient id="SVGID_6_" gradientUnits="userSpaceOnUse" x1="2799.6846" y1="-4888.1729" x2="2810.3682" y2="-4888.1729" gradientTransform="matrix(0.2498 0 0 -0.2498 -698.7909 -1216.7833)">
	<stop  offset="0" style="stop-color:#2C5C85"/>
	<stop  offset="1" style="stop-color:#002957"/>
</linearGradient>
<path fill="url(#SVGID_6_)" d="M3.195,6.617L3.21,7.531L1.03,6.082L0.96,5.493L3.195,6.617L3.195,6.617z M0.541,1.958l0.35,2.946
	l2.309,0.768L3.184,4.798L1.418,4.423L1.259,2.404l1.929-0.471l0.019-0.899L0.541,1.958L0.541,1.958z M3.188,2.892l-0.01,0.924
	L1.979,3.772L1.945,3.014L3.188,2.892z"/>
<linearGradient id="SVGID_7_" gradientUnits="userSpaceOnUse" x1="2810.3662" y1="-4888.1729" x2="2821.0557" y2="-4888.1729" gradientTransform="matrix(0.2498 0 0 -0.2498 -698.7909 -1216.7833)">
	<stop  offset="0" style="stop-color:#136296"/>
	<stop  offset="1" style="stop-color:#004F80"/>
</linearGradient>
<path fill="url(#SVGID_7_)" d="M5.389,6.082L3.211,7.531l0.014-0.914l1.672-0.844L5.054,3.75L3.24,3.816L3.227,2.891l2.512,0.245
	L5.389,6.082L5.389,6.082z M5.807,2.548l0.071-0.589l-2.67-0.925l0.017,0.898L5.807,2.548L5.807,2.548z M4.368,5.29l0.035-0.759
	L3.23,4.798L3.216,5.672L4.368,5.29z"/>
<g>
	<g>
		<pattern  id="SVGID_8_" xlink:href="#Stars_3D_Color" patternTransform="matrix(1 0 0 -1 -263.9922 -17722.1836)">
		</pattern>
		<path fill="url(#SVGID_8_)" d="M8.75,4.434H7.079v1.548H8.94v0.465H6.523V2.15h2.322v0.466H7.079v1.357H8.75V4.434z"/>
		<pattern  id="SVGID_9_" xlink:href="#Stars_3D_Color" patternTransform="matrix(1 0 0 -1 -263.9922 -17722.1836)">
		</pattern>
		<path fill="url(#SVGID_9_)" d="M9.073,6.579H6.39V2.017h2.588v0.731H7.211V3.84h1.672v0.726H7.211v1.283h1.862V6.579z
			 M6.656,6.314h2.152V6.115H6.946V4.3h1.67V4.107h-1.67V2.481h1.767V2.283H6.656V6.314z"/>
	</g>
	<g>
		<pattern  id="SVGID_10_" xlink:href="#Stars_3D_Color" patternTransform="matrix(1 0 0 -1 -263.9922 -17722.1836)">
		</pattern>
		<path fill="url(#SVGID_10_)" d="M9.664,2.148h0.555v3.833h1.836v0.465H9.664V2.148z"/>
		<pattern  id="SVGID_11_" xlink:href="#Stars_3D_Color" patternTransform="matrix(1 0 0 -1 -263.9922 -17722.1836)">
		</pattern>
		<path fill="url(#SVGID_11_)" d="M12.188,6.579H9.531V2.017h0.821v3.832h1.836V6.579z M9.796,6.314h2.125V6.115h-1.836V2.282h-0.29
			V6.314z"/>
	</g>
	<g>
		<pattern  id="SVGID_12_" xlink:href="#Stars_3D_Color" patternTransform="matrix(1 0 0 -1 -263.9922 -17722.1836)">
		</pattern>
		<path fill="url(#SVGID_12_)" d="M13.371,5.096l-0.447,1.351H12.35L13.81,2.15h0.67l1.466,4.296h-0.592l-0.459-1.351H13.371z
			 M14.778,4.663l-0.421-1.238C14.261,3.145,14.2,2.89,14.136,2.64h-0.013c-0.065,0.256-0.135,0.517-0.218,0.778l-0.419,1.245
			H14.778z"/>
		<pattern  id="SVGID_13_" xlink:href="#Stars_3D_Color" patternTransform="matrix(1 0 0 -1 -263.9922 -17722.1836)">
		</pattern>
		<path fill="url(#SVGID_13_)" d="M16.13,6.579h-0.873l-0.458-1.351h-1.333l-0.446,1.351h-0.857l1.549-4.563h0.863l0.029,0.09
			L16.13,6.579z M15.447,6.314h0.313l-1.375-4.031h-0.479l-1.37,4.031h0.293l0.447-1.353h1.714L15.447,6.314z M14.966,4.795h-1.667
			l0.481-1.419c0.072-0.229,0.141-0.481,0.214-0.768l0.024-0.101h0.218l0.043,0.166c0.06,0.224,0.119,0.457,0.204,0.709
			L14.966,4.795z M13.67,4.529h0.924l-0.362-1.062c-0.039-0.115-0.073-0.224-0.104-0.332c-0.032,0.111-0.066,0.22-0.099,0.323
			L13.67,4.529z"/>
	</g>
	<g>
		<pattern  id="SVGID_14_" xlink:href="#Stars_3D_Color" patternTransform="matrix(1 0 0 -1 -263.9922 -17722.1836)">
		</pattern>
		<path fill="url(#SVGID_14_)" d="M16.288,6.123l2.385-3.49v-0.02h-2.182V2.148h2.903v0.338L17.021,5.96v0.02h2.403v0.466h-3.137
			V6.123z"/>
		<pattern  id="SVGID_15_" xlink:href="#Stars_3D_Color" patternTransform="matrix(1 0 0 -1 -263.9922 -17722.1836)">
		</pattern>
		<path fill="url(#SVGID_15_)" d="M19.558,6.579h-3.403V6.08l2.279-3.333h-2.076V2.016h3.167v0.514l-2.269,3.319h2.301L19.558,6.579
			L19.558,6.579z M16.419,6.314h2.872V6.115h-2.402V5.941l0.02-0.053l2.351-3.442V2.282h-2.636v0.199h2.181v0.174l-0.021,0.053
			l-2.363,3.456V6.314z"/>
	</g>
	<g>
		<pattern  id="SVGID_16_" xlink:href="#Stars_3D_Color" patternTransform="matrix(1 0 0 -1 -263.9922 -17722.1836)">
		</pattern>
		<path fill="url(#SVGID_16_)" d="M20.663,2.148v1.799h2.08V2.148h0.56v4.298h-0.56V4.432h-2.081v2.015h-0.554V2.148H20.663z"/>
		<pattern  id="SVGID_17_" xlink:href="#Stars_3D_Color" patternTransform="matrix(1 0 0 -1 -263.9922 -17722.1836)">
		</pattern>
		<path fill="url(#SVGID_17_)" d="M23.438,6.579h-0.828V4.566h-1.813v2.013h-0.82V2.017h0.82v1.799h1.813V2.017h0.828V6.579z
			 M22.875,6.314h0.296V2.283h-0.296V4.08h-2.344V2.283h-0.289v4.031h0.289V4.3h2.344V6.314z"/>
	</g>
	<g>
		<pattern  id="SVGID_18_" xlink:href="#Stars_3D_Color" patternTransform="matrix(1 0 0 -1 -263.9922 -17722.1836)">
		</pattern>
		<path fill="url(#SVGID_18_)" d="M24.962,5.096l-0.445,1.351h-0.573l1.46-4.296h0.67l1.468,4.296h-0.595l-0.46-1.351H24.962z
			 M26.372,4.663l-0.421-1.238c-0.096-0.279-0.159-0.534-0.222-0.784h-0.013c-0.064,0.256-0.134,0.517-0.218,0.778l-0.421,1.245
			H26.372z"/>
		<pattern  id="SVGID_19_" xlink:href="#Stars_3D_Color" patternTransform="matrix(1 0 0 -1 -263.9922 -17722.1836)">
		</pattern>
		<path fill="url(#SVGID_19_)" d="M27.727,6.579h-0.876l-0.458-1.351h-1.332l-0.446,1.351H23.76l1.548-4.563h0.859l0.031,0.09
			L27.727,6.579z M27.042,6.314h0.311l-1.376-4.031h-0.478l-1.368,4.031h0.291l0.447-1.353h1.714L27.042,6.314z M26.559,4.795
			h-1.664l0.48-1.419c0.088-0.281,0.159-0.557,0.214-0.768l0.024-0.101h0.22l0.024,0.1c0.062,0.251,0.126,0.503,0.221,0.775
			L26.559,4.795z M25.265,4.529h0.921l-0.359-1.062c-0.039-0.115-0.071-0.224-0.104-0.332c-0.028,0.104-0.061,0.213-0.098,0.323
			L25.265,4.529z"/>
	</g>
	<g>
		<pattern  id="SVGID_20_" xlink:href="#Stars_3D_Color" patternTransform="matrix(1 0 0 -1 -263.9922 -17722.1836)">
		</pattern>
		<path fill="url(#SVGID_20_)" d="M28.174,2.206c0.281-0.058,0.681-0.088,1.063-0.088c0.593,0,0.977,0.107,1.244,0.349
			c0.215,0.192,0.339,0.485,0.339,0.818c0,0.567-0.359,0.944-0.811,1.096v0.019c0.332,0.116,0.528,0.422,0.631,0.87
			c0.14,0.598,0.241,1.013,0.33,1.177h-0.574c-0.069-0.119-0.166-0.49-0.286-1.025c-0.127-0.594-0.357-0.817-0.862-0.835h-0.519
			v1.861h-0.556V2.206L28.174,2.206z M28.73,4.165h0.565c0.595,0,0.971-0.326,0.971-0.816c0-0.555-0.402-0.797-0.988-0.804
			c-0.269,0-0.46,0.025-0.548,0.052V4.165z"/>
		<pattern  id="SVGID_21_" xlink:href="#Stars_3D_Color" patternTransform="matrix(1 0 0 -1 -263.9922 -17722.1836)">
		</pattern>
		<path fill="url(#SVGID_21_)" d="M31.194,6.579h-0.872l-0.037-0.064c-0.073-0.125-0.158-0.422-0.304-1.064
			c-0.114-0.538-0.293-0.714-0.734-0.731h-0.386v1.86H28.04V2.098l0.106-0.021c0.28-0.057,0.688-0.091,1.091-0.091
			c0.629,0,1.038,0.118,1.333,0.383c0.243,0.215,0.382,0.549,0.382,0.917c0,0.486-0.241,0.889-0.657,1.115
			c0.228,0.168,0.385,0.449,0.475,0.839c0.131,0.555,0.237,0.992,0.32,1.146L31.194,6.579z M30.484,6.314h0.289
			c-0.073-0.222-0.155-0.567-0.262-1.017c-0.097-0.426-0.273-0.68-0.544-0.772l-0.092-0.03V4.306l0.092-0.051
			c0.449-0.152,0.719-0.515,0.719-0.97c0-0.292-0.107-0.553-0.293-0.718c-0.242-0.218-0.599-0.317-1.156-0.317
			c-0.337,0-0.675,0.025-0.932,0.066v3.998h0.29V4.452h0.653c0.576,0.019,0.853,0.284,0.99,0.938
			C30.29,5.597,30.402,6.106,30.484,6.314z M29.296,4.297h-0.699V2.495l0.095-0.028c0.122-0.033,0.34-0.056,0.587-0.056l0,0
			c0.713,0.007,1.121,0.349,1.121,0.937C30.398,3.916,29.955,4.297,29.296,4.297z M28.861,4.033h0.435
			c0.516,0,0.837-0.261,0.837-0.684c0-0.438-0.289-0.666-0.856-0.671c-0.182,0-0.322,0.013-0.415,0.026V4.033z"/>
	</g>
</g>
</svg>
